<?xml version="1.0" encoding="UTF-8"?>
<svg width="99px" height="45px" viewBox="0 0 99 45" version="1.1" xmlns="http://www.w3.org/2000/svg" xmlns:xlink="http://www.w3.org/1999/xlink">
    <title>code carton</title>
    <g id="Page-1" stroke="none" stroke-width="1" fill="none" fill-rule="evenodd">
        <g id="Tablet-Landing-Page" transform="translate(-103.000000, -122.000000)" fill="#FFFFFF" fill-rule="nonzero">
            <g id="code-carton" transform="translate(103.706000, 122.595000)">
                <path d="M29.55075,13.1285 C29.55075,13.9551667 29.2691667,14.6294167 28.706,15.15125 C28.1428333,15.6730833 27.39625,15.934 26.46625,15.934 C25.5465833,15.934 24.8594167,15.6834167 24.40475,15.18225 C23.9500833,14.6810833 23.72275,14.043 23.72275,13.268 L23.72275,12.803 C23.72275,11.966 23.2990833,11.5475 22.45175,11.5475 C21.92475,11.5475 21.4675,11.7851667 21.08,12.2605 C20.6925,12.7358333 20.49875,13.4746667 20.49875,14.477 C20.49875,16.0476667 20.9095,17.2256667 21.731,18.011 C22.5525,18.7963333 23.5574167,19.189 24.74575,19.189 C25.39675,19.189 25.9573333,19.11925 26.4275,18.97975 C26.8976667,18.84025 27.3600833,18.6 27.81475,18.259 C28.1144167,18.0316667 28.34175,17.87925 28.49675,17.80175 C28.65175,17.72425 28.8015833,17.6855 28.94625,17.6855 C29.4009167,17.7061667 29.62825,18.042 29.62825,18.693 C29.62825,19.592 29.3440833,20.429 28.77575,21.204 C28.2074167,21.979 27.41175,22.6015833 26.38875,23.07175 C25.36575,23.5419167 24.1670833,23.777 22.79275,23.777 C21.3254167,23.777 20.00275,23.4773333 18.82475,22.878 C17.64675,22.2786667 16.71675,21.4313333 16.03475,20.336 C15.35275,19.2406667 15.01175,17.949 15.01175,16.461 C15.01175,14.9626667 15.3398333,13.6193333 15.996,12.431 C16.6521667,11.2426667 17.5873333,10.29975 18.8015,9.60225 C20.0156667,8.90475 21.4494167,8.556 23.10275,8.556 C24.4254167,8.556 25.5698333,8.76266667 26.536,9.176 C27.5021667,9.58933333 28.2461667,10.1421667 28.768,10.8345 C29.2898333,11.5268333 29.55075,12.2915 29.55075,13.1285 Z" id="Path"></path>
                <path d="M39.37775,8.556 C41.0310833,8.556 42.47,8.8815 43.6945,9.5325 C44.919,10.1835 45.8696667,11.0850833 46.5465,12.23725 C47.2233333,13.3894167 47.56175,14.7198333 47.56175,16.2285 C47.56175,17.6338333 47.2104167,18.9048333 46.50775,20.0415 C45.8050833,21.1781667 44.8208333,22.0823333 43.555,22.754 C42.2891667,23.4256667 40.81925,23.7615 39.14525,23.7615 C37.4919167,23.7615 36.053,23.4385833 34.8285,22.79275 C33.604,22.1469167 32.6533333,21.2453333 31.9765,20.088 C31.2996667,18.9306667 30.96125,17.5873333 30.96125,16.058 C30.96125,14.6733333 31.3125833,13.41525 32.01525,12.28375 C32.7179167,11.15225 33.6995833,10.2480833 34.96025,9.57125 C36.2209167,8.89441667 37.6934167,8.556 39.37775,8.556 Z M40.46275,20.646 C40.9174167,20.522 41.20675,20.0518333 41.33075,19.2355 C41.45475,18.4191667 41.31525,17.2463333 40.91225,15.717 C40.50925,14.136 40.0545833,13.0303333 39.54825,12.4 C39.0419167,11.7696667 38.55625,11.5216667 38.09125,11.656 C37.65725,11.7696667 37.3705,12.2243333 37.231,13.02 C37.0915,13.8156667 37.2284167,15.004 37.64175,16.585 C38.04475,18.166 38.4994167,19.2690833 39.00575,19.89425 C39.5120833,20.5194167 39.99775,20.77 40.46275,20.646 Z" id="Shape"></path>
                <path d="M48.83275,16.6625 C48.83275,14.9988333 49.1505,13.5625 49.786,12.3535 C50.4215,11.1445 51.29725,10.2093333 52.41325,9.548 C53.52925,8.88666667 54.8054167,8.556 56.24175,8.556 C57.29575,8.556 58.22575,8.76266667 59.03175,9.176 L59.03175,5.766 C59.03175,5.332 58.9826667,5.03233333 58.8845,4.867 C58.7863333,4.70166667 58.64425,4.56216667 58.45825,4.4485 L58.28775,4.34 C58.0500833,4.19533333 57.86925,4.03516667 57.74525,3.8595 C57.62125,3.68383333 57.55925,3.4565 57.55925,3.1775 C57.55925,2.8675 57.6496667,2.60141667 57.8305,2.37925 C58.0113333,2.15708333 58.3239167,1.95816667 58.76825,1.7825 L61.82175,0.5735 C62.34875,0.366833333 62.7724167,0.219583333 63.09275,0.13175 C63.4130833,0.0439166667 63.7334167,0 64.05375,0 C64.4464167,0 64.7486667,0.126583333 64.9605,0.37975 C65.1723333,0.632916667 65.27825,0.955833333 65.27825,1.3485 L65.27825,19.127 C65.27825,19.6436667 65.3118333,19.9975833 65.379,20.18875 C65.4461667,20.3799167 65.54175,20.5271667 65.66575,20.6305 L65.85175,20.7855 C66.0790833,20.9611667 66.2573333,21.14975 66.3865,21.35125 C66.5156667,21.55275 66.58025,21.8033333 66.58025,22.103 C66.58025,22.5163333 66.45625,22.8366667 66.20825,23.064 C65.96025,23.2913333 65.6244167,23.405 65.20075,23.405 L61.99225,23.405 C61.4239167,23.405 60.9020833,23.2319167 60.42675,22.88575 C59.9514167,22.5395833 59.6259167,22.1185 59.45025,21.6225 C58.79925,22.3045 58.0888333,22.8340833 57.319,23.21125 C56.5491667,23.5884167 55.69925,23.777 54.76925,23.777 C53.62225,23.777 52.6018333,23.4799167 51.708,22.88575 C50.8141667,22.2915833 50.1115,21.4623333 49.6,20.398 C49.0885,19.3336667 48.83275,18.0885 48.83275,16.6625 Z M55.28075,15.9495 C55.28075,17.3755 55.51325,18.4191667 55.97825,19.0805 C56.44325,19.7418333 57.0270833,20.0725 57.72975,20.0725 C58.2154167,20.0725 58.6494167,19.9175 59.03175,19.6075 L59.03175,12.431 C58.8044167,12.2036667 58.56675,12.0460833 58.31875,11.95825 C58.07075,11.8704167 57.8124167,11.8265 57.54375,11.8265 C56.8720833,11.8265 56.327,12.1778333 55.9085,12.8805 C55.49,13.5831667 55.28075,14.6061667 55.28075,15.9495 Z" id="Shape"></path>
                <path d="M82.63825,14.0895 C82.63825,14.9471667 82.3954167,15.6085 81.90975,16.0735 C81.4240833,16.5385 80.74725,16.771 79.87925,16.771 L73.57075,16.771 C73.8704167,17.6596667 74.3535,18.321 75.02,18.755 C75.6865,19.189 76.48475,19.406 77.41475,19.406 C77.9934167,19.406 78.5720833,19.3104167 79.15075,19.11925 C79.7294167,18.9280833 80.2564167,18.6413333 80.73175,18.259 C81.22775,17.8663333 81.6049167,17.6803333 81.86325,17.701 C82.04925,17.7113333 82.212,17.78625 82.3515,17.92575 C82.491,18.06525 82.56075,18.3106667 82.56075,18.662 C82.56075,19.5506667 82.2765833,20.3850833 81.70825,21.16525 C81.1399167,21.9454167 80.3339167,22.57575 79.29025,23.05625 C78.2465833,23.53675 77.01175,23.777 75.58575,23.777 C73.9840833,23.777 72.5916667,23.467 71.4085,22.847 C70.2253333,22.227 69.3056667,21.3615833 68.6495,20.25075 C67.9933333,19.1399167 67.66525,17.8508333 67.66525,16.3835 C67.66525,14.8851667 67.97525,13.547 68.59525,12.369 C69.21525,11.191 70.1323333,10.261 71.3465,9.579 C72.5606667,8.897 74.05125,8.556 75.81825,8.556 C77.24425,8.556 78.4635833,8.80916667 79.47625,9.3155 C80.4889167,9.82183333 81.2690833,10.4960833 81.81675,11.33825 C82.3644167,12.1804167 82.63825,13.0975 82.63825,14.0895 Z M73.22975,14.446 C73.22975,14.5596667 73.2349167,14.6733333 73.24525,14.787 L75.43075,14.787 C76.08175,14.787 76.40725,14.4511667 76.40725,13.7795 C76.40725,12.9838333 76.2574167,12.4129167 75.95775,12.06675 C75.6580833,11.7205833 75.32225,11.5475 74.95025,11.5475 C74.48525,11.5475 74.08225,11.7670833 73.74125,12.20625 C73.40025,12.6454167 73.22975,13.392 73.22975,14.446 Z" id="Shape"></path>
                <path d="M14.539,33.1285 C14.539,33.9551667 14.2574167,34.6294167 13.69425,35.15125 C13.1310833,35.6730833 12.3845,35.934 11.4545,35.934 C10.5348333,35.934 9.84766667,35.6834167 9.393,35.18225 C8.93833333,34.6810833 8.711,34.043 8.711,33.268 L8.711,32.803 C8.711,31.966 8.28733333,31.5475 7.44,31.5475 C6.913,31.5475 6.45575,31.7851667 6.06825,32.2605 C5.68075,32.7358333 5.487,33.4746667 5.487,34.477 C5.487,36.0476667 5.89775,37.2256667 6.71925,38.011 C7.54075,38.7963333 8.54566667,39.189 9.734,39.189 C10.385,39.189 10.9455833,39.11925 11.41575,38.97975 C11.8859167,38.84025 12.3483333,38.6 12.803,38.259 C13.1026667,38.0316667 13.33,37.87925 13.485,37.80175 C13.64,37.72425 13.7898333,37.6855 13.9345,37.6855 C14.3891667,37.7061667 14.6165,38.042 14.6165,38.693 C14.6165,39.592 14.3323333,40.429 13.764,41.204 C13.1956667,41.979 12.4,42.6015833 11.377,43.07175 C10.354,43.5419167 9.15533333,43.777 7.781,43.777 C6.31366667,43.777 4.991,43.4773333 3.813,42.878 C2.635,42.2786667 1.705,41.4313333 1.023,40.336 C0.341,39.2406667 0,37.949 0,36.461 C0,34.9626667 0.328083333,33.6193333 0.98425,32.431 C1.64041667,31.2426667 2.57558333,30.29975 3.78975,29.60225 C5.00391667,28.90475 6.43766667,28.556 8.091,28.556 C9.41366667,28.556 10.5580833,28.7626667 11.52425,29.176 C12.4904167,29.5893333 13.2344167,30.1421667 13.75625,30.8345 C14.2780833,31.5268333 14.539,32.2915 14.539,33.1285 Z" id="Path"></path>
                <path d="M15.9805,40.119 C15.9805,38.693 16.6005,37.56925 17.8405,36.74775 C19.0805,35.92625 20.7545,35.5155 22.8625,35.5155 C23.4101667,35.5155 23.8958333,35.5516667 24.3195,35.624 L24.3195,32.028 C24.3195,31.656 24.2290833,31.3589167 24.04825,31.13675 C23.8674167,30.9145833 23.6116667,30.8035 23.281,30.8035 C23.0433333,30.8035 22.8366667,30.8629167 22.661,30.98175 C22.4853333,31.1005833 22.3975,31.2633333 22.3975,31.47 L22.3975,32.3225 C22.3975,33.1801667 22.1185,33.8363333 21.5605,34.291 C21.0025,34.7456667 20.212,34.973 19.189,34.973 C18.259,34.973 17.577,34.77925 17.143,34.39175 C16.709,34.00425 16.492,33.4695 16.492,32.7875 C16.492,32.1055 16.7968333,31.4441667 17.4065,30.8035 C18.0161667,30.1628333 18.93325,29.6306667 20.15775,29.207 C21.38225,28.7833333 22.9193333,28.5715 24.769,28.5715 C26.753,28.5715 28.21,28.9564167 29.14,29.72625 C30.07,30.4960833 30.535,31.5526667 30.535,32.896 L30.535,39.2975 C30.535,39.4421667 30.57375,39.5765 30.65125,39.7005 C30.72875,39.8245 30.8656667,39.8865 31.062,39.8865 C31.1756667,39.8865 31.2660833,39.871 31.33325,39.84 C31.4004167,39.809 31.465,39.7728333 31.527,39.7315 C31.5786667,39.7005 31.6355,39.6720833 31.6975,39.64625 C31.7595,39.6204167 31.8318333,39.6075 31.9145,39.6075 C32.1625,39.6075 32.3536667,39.7030833 32.488,39.89425 C32.6223333,40.0854167 32.6895,40.3153333 32.6895,40.584 C32.6895,41.0903333 32.5293333,41.5889167 32.209,42.07975 C31.8886667,42.5705833 31.434,42.9761667 30.845,43.2965 C30.256,43.6168333 29.5585,43.777 28.7525,43.777 C27.8948333,43.777 27.1430833,43.6065 26.49725,43.2655 C25.8514167,42.9245 25.3941667,42.4698333 25.1255,41.9015 C24.6501667,42.5008333 23.9836667,42.96325 23.126,43.28875 C22.2683333,43.61425 21.359,43.777 20.398,43.777 C19.034,43.777 17.95675,43.4308333 17.16625,42.7385 C16.37575,42.0461667 15.9805,41.173 15.9805,40.119 Z M22.2425,38.8635 C22.2425,39.3388333 22.3690833,39.7134167 22.62225,39.98725 C22.8754167,40.2610833 23.2241667,40.398 23.6685,40.398 C23.8958333,40.398 24.1128333,40.3618333 24.3195,40.2895 L24.3195,37.484 C24.1025,37.391 23.8545,37.3445 23.5755,37.3445 C23.1725,37.3445 22.8495833,37.484 22.60675,37.763 C22.3639167,38.042 22.2425,38.4088333 22.2425,38.8635 Z" id="Shape"></path>
                <path d="M40.4085,30.0905 L40.641,31.78 C40.9923333,30.6743333 41.5115833,29.8605833 42.19875,29.33875 C42.8859167,28.8169167 43.6738333,28.556 44.5625,28.556 C45.5235,28.556 46.283,28.8840833 46.841,29.54025 C47.399,30.1964167 47.678,31.1703333 47.678,32.462 C47.678,33.764 47.4248333,34.71725 46.9185,35.32175 C46.4121667,35.92625 45.7508333,36.2285 44.9345,36.2285 C44.0768333,36.2285 43.4335833,36.03475 43.00475,35.64725 C42.5759167,35.25975 42.3615,34.7301667 42.3615,34.0585 L42.3615,33.4075 C42.3615,32.8701667 42.16,32.6015 41.757,32.6015 C41.478,32.6015 41.2480833,32.8081667 41.06725,33.2215 C40.8864167,33.6348333 40.796,34.2548333 40.796,35.0815 L40.796,39.127 C40.796,40.0466667 41.0646667,40.5478333 41.602,40.6305 L42.563,40.7855 C42.9453333,40.8371667 43.2191667,40.9844167 43.3845,41.22725 C43.5498333,41.4700833 43.6325,41.762 43.6325,42.103 C43.6325,42.506 43.5110833,42.82375 43.26825,43.05625 C43.0254167,43.28875 42.6818333,43.405 42.2375,43.405 L34.7045,43.405 C34.2808333,43.405 33.945,43.2913333 33.697,43.064 C33.449,42.8366667 33.325,42.5163333 33.325,42.103 C33.325,41.8033333 33.387,41.55275 33.511,41.35125 C33.635,41.14975 33.8158333,40.9611667 34.0535,40.7855 L34.2395,40.6305 C34.3738333,40.5271667 34.472,40.3799167 34.534,40.18875 C34.596,39.9975833 34.627,39.6436667 34.627,39.127 L34.627,34.3375 C34.627,33.9035 34.5805,33.60125 34.4875,33.43075 C34.3945,33.26025 34.255,33.1233333 34.069,33.02 L33.883,32.896 C33.6453333,32.7513333 33.4645,32.59375 33.3405,32.42325 C33.2165,32.25275 33.1545,32.028 33.1545,31.749 C33.1545,31.1393333 33.5626667,30.6691667 34.379,30.3385 L37.4945,29.114 C37.9285,28.9383333 38.2953333,28.8014167 38.595,28.70325 C38.8946667,28.6050833 39.153,28.556 39.37,28.556 C39.649,28.556 39.87375,28.6645 40.04425,28.8815 C40.21475,29.0985 40.3361667,29.5015 40.4085,30.0905 Z" id="Path"></path>
                <path d="M48.949,31.749 L48.701,31.6095 C48.1946667,31.3305 47.9415,30.8913333 47.9415,30.292 C47.9415,29.8993333 48.0758333,29.579 48.3445,29.331 C48.6131667,29.083 48.9645,28.959 49.3985,28.959 L49.879,28.959 C50.065,28.959 50.2535833,28.8840833 50.44475,28.73425 C50.6359167,28.5844167 50.8761667,28.3183333 51.1655,27.936 L52.452,26.231 C52.7516667,25.828 53.0823333,25.5025 53.444,25.2545 C53.8056667,25.0065 54.1621667,24.8825 54.5135,24.8825 C54.9371667,24.8825 55.2755833,25.0090833 55.52875,25.26225 C55.7819167,25.5154167 55.9085,25.89 55.9085,26.386 L55.9085,28.959 L59.086,28.959 C59.9643333,28.959 60.4035,29.331 60.4035,30.075 C60.4035,30.6123333 60.171,31.0644167 59.706,31.43125 C59.241,31.7980833 58.4711667,31.9815 57.3965,31.9815 L55.9085,31.9815 L55.9085,37.4375 C55.9085,38.7085 56.3683333,39.344 57.288,39.344 C57.6703333,39.344 57.99325,39.2355 58.25675,39.0185 C58.52025,38.8015 58.7605,38.5870833 58.9775,38.37525 C59.1945,38.1634167 59.427,38.0678333 59.675,38.0885 C60.0986667,38.0988333 60.3105,38.445 60.3105,39.127 C60.3105,39.9433333 60.0650833,40.7054167 59.57425,41.41325 C59.0834167,42.1210833 58.4220833,42.692 57.59025,43.126 C56.7584167,43.56 55.831,43.777 54.808,43.777 C53.1133333,43.777 51.832,43.374 50.964,42.568 C50.096,41.762 49.662,40.4961667 49.662,38.7705 L49.662,33.0665 C49.662,32.6635 49.60775,32.37675 49.49925,32.20625 C49.39075,32.03575 49.2073333,31.8833333 48.949,31.749 Z" id="Path"></path>
                <path d="M69.7035,28.556 C71.3568333,28.556 72.79575,28.8815 74.02025,29.5325 C75.24475,30.1835 76.1954167,31.0850833 76.87225,32.23725 C77.5490833,33.3894167 77.8875,34.7198333 77.8875,36.2285 C77.8875,37.6338333 77.5361667,38.9048333 76.8335,40.0415 C76.1308333,41.1781667 75.1465833,42.0823333 73.88075,42.754 C72.6149167,43.4256667 71.145,43.7615 69.471,43.7615 C67.8176667,43.7615 66.37875,43.4385833 65.15425,42.79275 C63.92975,42.1469167 62.9790833,41.2453333 62.30225,40.088 C61.6254167,38.9306667 61.287,37.5873333 61.287,36.058 C61.287,34.6733333 61.6383333,33.41525 62.341,32.28375 C63.0436667,31.15225 64.0253333,30.2480833 65.286,29.57125 C66.5466667,28.8944167 68.0191667,28.556 69.7035,28.556 Z M70.7885,40.646 C71.2431667,40.522 71.5325,40.0518333 71.6565,39.2355 C71.7805,38.4191667 71.641,37.2463333 71.238,35.717 C70.835,34.136 70.3803333,33.0303333 69.874,32.4 C69.3676667,31.7696667 68.882,31.5216667 68.417,31.656 C67.983,31.7696667 67.69625,32.2243333 67.55675,33.02 C67.41725,33.8156667 67.5541667,35.004 67.9675,36.585 C68.3705,38.166 68.8251667,39.2690833 69.3315,39.89425 C69.8378333,40.5194167 70.3235,40.77 70.7885,40.646 Z" id="Shape"></path>
                <path d="M86.831,29.9045 L86.831,31.253 C87.916,30.2713333 88.8744167,29.5764167 89.70625,29.16825 C90.5380833,28.7600833 91.3363333,28.556 92.101,28.556 C93.3513333,28.556 94.302,28.9564167 94.953,29.75725 C95.604,30.5580833 95.9915,31.6353333 96.1155,32.989 L96.7355,39.127 C96.7768333,39.6436667 96.82075,39.9975833 96.86725,40.18875 C96.91375,40.3799167 96.999,40.5271667 97.123,40.6305 L97.309,40.7855 C97.5363333,40.9715 97.7145833,41.1626667 97.84375,41.359 C97.9729167,41.5553333 98.0375,41.8033333 98.0375,42.103 C98.0375,42.5163333 97.9160833,42.8366667 97.67325,43.064 C97.4304167,43.2913333 97.092,43.405 96.658,43.405 L90.52,43.405 C89.7036667,43.405 89.2955,42.971 89.2955,42.103 C89.2955,41.6276667 89.4815,41.2505 89.8535,40.9715 L90.0705,40.7855 C90.2151667,40.6821667 90.3236667,40.5271667 90.396,40.3205 C90.4683333,40.1138333 90.4786667,39.7418333 90.427,39.2045 L89.993,34.8955 C89.931,34.2651667 89.78375,33.7898333 89.55125,33.4695 C89.31875,33.1491667 88.9596667,32.989 88.474,32.989 C88.2053333,32.989 87.9340833,33.04325 87.66025,33.15175 C87.3864167,33.26025 87.11,33.4385 86.831,33.6865 L86.831,39.127 C86.831,39.6953333 86.8568333,40.088 86.9085,40.305 C86.9601667,40.522 87.0531667,40.6821667 87.1875,40.7855 L87.42,40.9715 C87.7816667,41.2608333 87.9625,41.638 87.9625,42.103 C87.9625,42.971 87.5491667,43.405 86.7225,43.405 L80.662,43.405 C80.2383333,43.405 79.9025,43.2913333 79.6545,43.064 C79.4065,42.8366667 79.2825,42.5163333 79.2825,42.103 C79.2825,41.8033333 79.3445,41.55275 79.4685,41.35125 C79.5925,41.14975 79.7733333,40.9611667 80.011,40.7855 L80.197,40.6305 C80.3313333,40.5271667 80.4295,40.3799167 80.4915,40.18875 C80.5535,39.9975833 80.5845,39.6436667 80.5845,39.127 L80.5845,34.3375 C80.5845,33.9035 80.538,33.60125 80.445,33.43075 C80.352,33.26025 80.2125,33.1233333 80.0265,33.02 L79.8405,32.896 C79.6028333,32.7513333 79.422,32.59375 79.298,32.42325 C79.174,32.25275 79.112,32.028 79.112,31.749 C79.112,31.439 79.205,31.1703333 79.391,30.943 C79.577,30.7156667 79.8921667,30.5141667 80.3365,30.3385 L83.3745,29.1295 C83.9015,28.9228333 84.3251667,28.7755833 84.6455,28.68775 C84.9658333,28.5999167 85.2913333,28.556 85.622,28.556 C86.0043333,28.556 86.3014167,28.6825833 86.51325,28.93575 C86.7250833,29.1889167 86.831,29.5118333 86.831,29.9045 Z" id="Path"></path>
            </g>
        </g>
    </g>
</svg>