<?xml version="1.0" encoding="UTF-8"?>
<svg width="48px" height="52px" viewBox="0 0 48 52" version="1.1" xmlns="http://www.w3.org/2000/svg" xmlns:xlink="http://www.w3.org/1999/xlink">
    <title>code-carton-pictoral</title>
    <defs>
        <radialGradient cx="49.9605093%" cy="88.6732421%" fx="49.9605093%" fy="88.6732421%" r="84.3238627%" gradientTransform="translate(0.499605,0.886732),scale(1.000000,0.903870),rotate(-90.000000),translate(-0.499605,-0.886732)" id="radialGradient-1">
            <stop stop-color="#D447F0" offset="0%"></stop>
            <stop stop-color="#D447F0" offset="11%"></stop>
            <stop stop-color="#A855F7" offset="79%"></stop>
            <stop stop-color="#A456F7" offset="92%"></stop>
            <stop stop-color="#8B5CF6" offset="99%"></stop>
            <stop stop-color="#8B5CF6" offset="100%"></stop>
        </radialGradient>
    </defs>
    <g id="Page-1" stroke="none" stroke-width="1" fill="none" fill-rule="evenodd">
        <g id="Mobile-Landing-Page" transform="translate(-173.000000, -117.000000)" fill="url(#radialGradient-1)">
            <path d="M193.391036,118.403609 C194.507702,117.759067 195.753888,117.436796 197.000175,117.436796 C198.24636,117.436796 199.492851,117.759067 200.609517,118.403609 L216.496093,127.575627 C218.72963,128.865728 220.10513,131.248704 220.10513,133.826872 L220.10513,152.170908 C220.10513,154.750093 218.72963,157.133069 216.496093,158.422153 L200.609212,167.594171 C198.375981,168.883256 195.624369,168.883256 193.391036,167.594171 L177.504663,158.422153 C175.27133,157.133069 173.895524,154.750093 173.895524,152.170908 L173.895524,133.826872 C173.895524,131.248704 175.27133,128.865728 177.504663,127.575627 L193.391036,118.403609 Z M182.880502,136.932671 L191.08298,141.854167 L193.54353,140.354641 C194.118841,140.003904 194.585475,138.988293 194.585475,138.08756 L194.585475,128.19272 C194.585475,127.291987 194.119553,126.848738 193.545055,127.202524 L182.635596,133.914302 C181.023322,134.974645 181.579622,136.156984 182.880502,136.932671 Z M179.455272,135.831663 L179.455272,148.4348 C179.455272,149.985158 180.19365,150.842175 181.072832,151.481634 L193.544852,159.149042 C194.119655,159.501812 194.585576,159.057546 194.585576,158.156814 L194.585576,148.334154 C194.585576,147.432405 194.119451,146.415777 193.544344,146.064023 L181.435058,138.640606 C179.910722,137.707341 179.551445,136.680547 179.455272,135.831663 Z M211.679299,136.932671 C212.980586,136.156984 213.536682,134.974645 211.924307,133.914302 L201.014848,127.202524 C200.44035,126.848738 199.974327,127.291987 199.974327,128.19272 L199.974327,138.08756 C199.974327,138.988293 200.441062,140.003904 201.016373,140.354641 L203.476821,141.854167 L211.679299,136.932671 Z M215.104326,135.830646 C215.008763,136.680547 214.648876,137.707341 213.124947,138.640606 L201.015559,146.064023 C200.440452,146.415777 199.974327,147.432405 199.974327,148.334154 L199.974327,158.156814 C199.974327,159.058563 200.440248,159.501812 201.015051,159.149042 L213.486868,151.481634 C214.366253,150.842175 215.104326,149.985158 215.104326,148.4348 L215.104326,135.830646 Z" id="code-carton-pictoral"></path>
        </g>
    </g>
</svg>