<?xml version="1.0" encoding="UTF-8"?>
<svg width="150px" height="50px" viewBox="0 0 150 50" version="1.1" xmlns="http://www.w3.org/2000/svg" xmlns:xlink="http://www.w3.org/1999/xlink">
    <title>download-on-the-app-store</title>
    <g id="Page-1" stroke="none" stroke-width="1" fill="none" fill-rule="evenodd">
        <g id="Mobile-Landing-Page" transform="translate(-122.000000, -369.000000)" fill-rule="nonzero">
            <g id="download-on-the-app-store" transform="translate(122.000000, 369.000000)">
                <g id="Group">
                    <g id="Path">
                        <path d="M138.054936,1.25767043e-16 L11.9518081,1.25767043e-16 C11.4921463,1.25767043e-16 11.038,1.25767043e-16 10.5795541,0.00266249135 C10.1957923,0.00516248322 9.81508902,0.0124249596 9.4276419,0.0185374398 C8.58592769,0.0284146622 7.74619291,0.102257493 6.91573502,0.239424222 C6.08644359,0.379577051 5.28313033,0.643805083 4.53296466,1.02317167 C3.78371646,1.40574757 3.09910696,1.90286573 2.50397216,2.49649189 C1.90571301,3.08844871 1.40701781,3.77267071 1.02706268,4.5228478 C0.64605889,5.27153177 0.381869635,6.07381563 0.243619492,6.90199007 C0.10405497,7.72911851 0.0289540302,8.56578534 0.0189906628,9.40448194 C0.00735809838,9.78773069 0.00612965947,10.1722544 0,10.5555532 L0,39.4482843 C0.00612965947,39.836408 0.00735809838,40.2124068 0.0189906628,40.6006555 C0.0289570855,41.4393105 0.104058026,42.2759356 0.243619492,43.1030224 C0.381487885,43.931681 0.64569276,44.7344254 1.02706268,45.4833897 C1.40684528,46.2311409 1.90561061,46.9125928 2.50397216,47.5012581 C3.0968504,48.0975237 3.78190241,48.5949801 4.53296466,48.9746283 C5.28312463,49.3550103 6.08635129,49.620811 6.91573502,49.7631258 C7.74633409,49.8991937 8.5859825,49.9730666 9.4276419,49.9841251 C9.81508902,49.992625 10.1957923,49.9975 10.5795541,49.9975 C11.0379874,50 11.4921714,50 11.9518081,50 L138.054936,50 C138.505447,50 138.963228,50 139.41374,49.9975 C139.795684,49.9975 140.187405,49.992625 140.56935,49.9841251 C141.409418,49.9736547 142.247486,49.8997772 143.076368,49.7631258 C143.908427,49.6198092 144.714534,49.3540788 145.468314,48.9746283 C146.218699,48.5947603 146.903118,48.0973175 147.495489,47.5012581 C148.092307,46.9102873 148.592137,46.2293338 148.976635,45.4833897 C149.355143,44.7338806 149.616833,43.9312003 149.752683,43.1030224 C149.892468,42.2758221 149.970233,41.4393832 149.985334,40.6006555 C149.990223,40.2124068 149.990223,39.836408 149.990223,39.4482843 C150,38.9941608 150,38.5425372 150,38.0810387 L150,11.9202863 C150,11.4625252 150,11.0084267 149.990223,10.5555532 C149.990223,10.1722544 149.990223,9.78773069 149.985334,9.40443194 C149.970236,8.56566272 149.892471,7.72918197 149.752683,6.90194007 C149.616455,6.07424476 149.35478,5.27202446 148.976635,4.5227978 C148.202874,3.01914779 146.975913,1.79518841 145.468314,1.02305918 C144.714531,0.64461963 143.908339,0.380461776 143.076368,0.239311722 C142.247629,0.101540649 141.409474,0.0276721162 140.56935,0.0183624403 C140.187405,0.0122624601 139.795684,0.00493748395 139.41374,0.00249999188 C138.963228,1.25767043e-16 138.505447,1.25767043e-16 138.054936,1.25767043e-16 L138.054936,1.25767043e-16 Z" fill="#000000"></path>
                        <path d="M10.5856712,48.9062536 C10.2037521,48.9062536 9.83105873,48.9013786 9.45213547,48.8928786 C8.66716522,48.8826796 7.88402965,48.8145352 7.10915148,48.6890043 C6.38661668,48.5649149 5.68667468,48.334086 5.03241282,48.0041315 C4.38415019,47.6769109 3.79288257,47.24785 3.28126062,46.7333856 C2.76223305,46.2249813 2.33011889,45.6353191 2.00204205,44.9877663 C1.67035008,44.3360048 1.4407995,43.6373951 1.32138661,42.916273 C1.19243106,42.1414191 1.12266076,41.3579196 1.11267735,40.5725306 C1.1047301,40.3089065 1.09432597,39.4311593 1.09432597,39.4311593 L1.09432597,10.5555532 C1.09432597,10.5555532 1.10540699,9.6912935 1.11274002,9.43738183 C1.12229907,8.65323694 1.19166365,7.87095329 1.32023338,7.09730193 C1.43986669,6.37420438 1.66959498,5.67358014 2.00146544,5.01968369 C2.32833651,4.3725781 2.75805166,3.78247557 3.27395266,3.27225187 C3.78927379,2.75718031 4.38243277,2.32591009 5.0317986,1.99416852 C5.68455678,1.66527409 6.38317598,1.43607351 7.10425026,1.31424573 C7.88167326,1.18745381 8.66752757,1.11890397 9.4552191,1.1091714 L10.5862854,1.09390894 L139.407597,1.09390894 L140.552177,1.10978389 C141.332703,1.11903286 142.111419,1.18697115 142.881698,1.31302073 C143.610072,1.43637667 144.315972,1.6671765 144.976186,1.99783101 C146.277101,2.66638639 147.335631,3.72410408 148.003411,5.02273368 C148.329984,5.67211602 148.556169,6.36702525 148.674289,7.08387698 C148.804389,7.86387617 148.877203,8.6523073 148.892149,9.44288181 C148.895784,9.79688066 148.895784,10.1771294 148.895784,10.5555532 C148.905687,11.0243017 148.905687,11.4704627 148.905687,11.9202863 L148.905687,38.0810387 C148.905687,38.5351623 148.905687,38.9782858 148.895784,39.4250344 C148.895784,39.831533 148.895784,40.2039068 148.890895,40.5871556 C148.876273,41.3636227 148.804673,42.1379809 148.67667,42.9040231 C148.559705,43.6303471 148.331404,44.3344098 147.999776,44.9915163 C147.66938,45.6320406 147.239747,46.216595 146.726712,46.7236356 C146.214629,47.2408648 145.622318,47.6724359 144.972551,48.0017565 C144.314166,48.3342475 143.609305,48.56593 142.881698,48.6890043 C142.106878,48.8152051 141.323668,48.8833538 140.538639,48.8928786 C140.171486,48.9013786 139.787035,48.9062536 139.41374,48.9062536 L138.054936,48.9087535 L10.5856712,48.9062536 Z" fill="#FFFFFF"></path>
                    </g>
                    <g id="_Group_" transform="translate(12.045035, 9.808781)" fill="#000000">
                        <g id="_Group_3">
                            <path d="M19.2885686,15.0529886 C19.3170611,12.8478039 20.4763938,10.8108847 22.3603929,9.65586862 C21.1664636,7.95550665 19.2384025,6.91609068 17.1578413,6.85117773 C14.9689135,6.62205348 12.8468605,8.15732349 11.7314004,8.15732349 C10.5943799,8.15732349 8.87699724,6.87392766 7.02764513,6.91186504 C4.59439486,6.99025859 2.38093703,8.33638203 1.19711053,10.4577285 C-1.32383414,14.8102144 0.556567388,21.2069311 2.97146519,24.7251821 C4.17969754,26.447964 5.591763,28.3723453 7.43944794,28.304108 C9.24750946,28.2293208 9.92278734,27.1543992 12.1052595,27.1543992 C14.2674875,27.1543992 14.9010235,28.304108 16.7862009,28.2607207 C18.7263447,28.2293208 19.9487041,26.5302888 21.1145678,24.7911944 C21.9826816,23.5636527 22.6506933,22.2069513 23.0938587,20.771345 C20.7895619,19.7994724 19.2912503,17.5479017 19.2885686,15.0529886 Z" id="_Path_"></path>
                            <path d="M15.7278506,4.53734775 C16.7857007,3.27100838 17.3068656,1.64333855 17.1806677,0 C15.5645228,0.169268111 14.0716574,0.939514762 12.9995254,2.15726799 C11.940843,3.3587467 11.4045174,4.93060327 11.5086769,6.52662879 C13.1464847,6.54344043 14.7015477,5.81025011 15.7278506,4.53734775 Z" id="_Path_2"></path>
                        </g>
                        <g id="Group" transform="translate(31.109247, 12.530109)">
                            <path d="M9.87138412,11.5857248 L3.93802417,11.5857248 L2.51313531,15.7812737 L0,15.7812737 L5.61998267,0.258824159 L8.23104212,0.258824159 L13.8510248,15.7812737 L11.2950445,15.7812737 L9.87138412,11.5857248 Z M4.55254447,9.64969364 L9.25571059,9.64969364 L6.9371951,2.84062827 L6.87226333,2.84062827 L4.55254447,9.64969364 Z" id="Shape"></path>
                            <path d="M25.988277,10.1233296 C25.988277,13.6401682 24.1006678,15.8996733 21.2521185,15.8996733 C19.7797283,15.9764789 18.3928172,15.2074389 17.6813349,13.9196798 L17.627434,13.9196798 L17.627434,19.5251365 L15.2979127,19.5251365 L15.2979127,4.46416049 L17.5527625,4.46416049 L17.5527625,6.34647937 L17.5956074,6.34647937 C18.338698,5.06679343 19.7271047,4.29808458 21.209236,4.34574838 C24.0896495,4.34576088 25.988277,6.6162535 25.988277,10.1233296 Z M23.5938741,10.1233296 C23.5938741,7.83208705 22.4064625,6.32572944 20.5947533,6.32572944 C18.8148707,6.32572944 17.6176692,7.86381194 17.6176692,10.1233296 C17.6176692,12.4035972 18.8148707,13.9306922 20.5947533,13.9306922 C22.4064751,13.9306922 23.5938741,12.4353346 23.5938741,10.1233296 L23.5938741,10.1233296 Z" id="Shape"></path>
                            <path d="M38.4799088,10.1233296 C38.4799088,13.6401682 36.5916854,15.8996733 33.7431361,15.8996733 C32.2707458,15.9764789 30.8838347,15.2074389 30.1723525,13.9196798 L30.1184516,13.9196798 L30.1184516,19.5251365 L27.7889303,19.5251365 L27.7889303,4.46416049 L30.0437801,4.46416049 L30.0437801,6.34647937 L30.086625,6.34647937 C30.8297156,5.06679343 32.2181223,4.29808458 33.7002536,4.34574838 C36.5806796,4.34576088 38.4799088,6.6162535 38.4799088,10.1233296 Z M36.0849042,10.1233296 C36.0849042,7.83208705 34.8974926,6.32572944 33.0857834,6.32572944 C31.3059008,6.32572944 30.1086993,7.86381194 30.1086993,10.1233296 C30.1086993,12.4035972 31.3059008,13.9306922 33.0857834,13.9306922 C34.8974926,13.9306922 36.0849042,12.4353346 36.0849042,10.1233296 L36.0849042,10.1233296 Z" id="Shape"></path>
                            <path d="M46.734216,11.4563253 C46.9068242,12.9956328 48.4063972,14.006317 50.4555712,14.006317 C52.4190803,14.006317 53.8317224,12.9955828 53.8317224,11.6076373 C53.8317224,10.4028037 52.9797248,9.68139354 50.9623649,9.18699514 L48.945005,8.70237172 C46.0866658,8.01389895 44.7597011,6.68089079 44.7597011,4.51781032 C44.7597011,1.83959402 47.1002407,0 50.4225287,0 C53.71299,0 55.9678398,1.83959402 56.0437398,4.51781032 L53.6921567,4.51781032 C53.5513876,2.96874035 52.2672679,2.03369339 50.390677,2.03369339 C48.5140861,2.03369339 47.2299789,2.97974032 47.2299789,4.35668584 C47.2299789,5.45409477 48.0501499,6.09984268 50.0564915,6.59417857 L51.7714925,7.0141022 C54.9652456,7.76727476 56.2909819,9.0465956 56.2909819,11.3170632 C56.2909819,14.2211038 53.972479,16.0399479 50.2829128,16.0399479 C46.8308616,16.0399479 44.5001244,14.2638286 44.3495529,11.4562128 L46.734216,11.4563253 Z" id="Path"></path>
                            <path d="M61.3209504,1.7859442 L61.3209504,4.46416049 L63.4790919,4.46416049 L63.4790919,6.30375451 L61.3209504,6.30375451 L61.3209504,12.5427467 C61.3209504,13.5119811 61.7530726,13.9636421 62.7017659,13.9636421 C62.9579724,13.9591871 63.2137643,13.9412455 63.4680736,13.9098923 L63.4680736,15.7384988 C63.0415399,15.817973 62.6080044,15.8539666 62.1741639,15.8459235 C59.8764817,15.8459235 58.9804107,14.9853263 58.9804107,12.7905084 L58.9804107,6.30375451 L57.3302914,6.30375451 L57.3302914,4.46416049 L58.9803857,4.46416049 L58.9803857,1.7859442 L61.3209504,1.7859442 Z" id="Path"></path>
                            <path d="M64.7277249,10.1233296 C64.7277249,6.56255367 66.8307747,4.32501094 70.1102302,4.32501094 C73.4006916,4.32501094 75.4939515,6.56250367 75.4939515,10.1233296 C75.4939515,13.6938805 73.41171,15.9216483 70.1102302,15.9216483 C66.8099539,15.9216483 64.7277249,13.693868 64.7277249,10.1233296 Z M73.1203568,10.1233296 C73.1203568,7.68071254 71.9978269,6.23906722 70.1102177,6.23906722 C68.2226085,6.23906722 67.1000786,7.6917 67.1000786,10.1233296 C67.1000786,12.5757091 68.2226085,14.0063795 70.1102177,14.0063795 C71.9978269,14.0063795 73.1203568,12.5757091 73.1203568,10.1233296 L73.1203568,10.1233296 Z" id="Shape"></path>
                            <path d="M77.4145782,4.46416049 L79.6363854,4.46416049 L79.6363854,6.39040423 L79.6902863,6.39040423 C80.0001237,5.15039377 81.139509,4.29697548 82.4200907,4.34573588 C82.6885472,4.34480117 82.9562631,4.37387422 83.218225,4.43241059 L83.218225,6.60525353 C82.8793149,6.50198302 82.5257735,6.45456814 82.1715449,6.46487899 C81.486688,6.43717338 80.8238984,6.70934661 80.3572051,7.20993403 C79.8905118,7.71052146 79.6665405,8.38951116 79.7440995,9.06862053 L79.7440995,15.7812487 L77.4145782,15.7812487 L77.4145782,4.46416049 Z" id="Path"></path>
                            <path d="M93.9587046,12.457297 C93.6453273,14.5117278 91.6389732,15.9216358 89.0719746,15.9216358 C85.7704949,15.9216358 83.7213083,13.7158304 83.7213083,10.1770294 C83.7213083,6.62724096 85.7815132,4.32499844 88.9740504,4.32499844 C92.1139403,4.32499844 94.0884678,6.47586645 94.0884678,9.9072553 L94.0884678,10.7031527 L86.0728663,10.7031527 L86.0728663,10.8435273 C85.9980286,11.686064 86.2897755,12.5200586 86.8738961,13.1333697 C87.4580167,13.7466808 88.2782119,14.0801959 89.1258504,14.0490793 C90.2563179,14.1547035 91.3221275,13.5073782 91.7467123,12.4572845 L93.9587046,12.457297 Z M86.0838626,9.07963299 L91.7577181,9.07963299 C91.7999933,8.32254482 91.5236334,7.58220421 90.9952211,7.03696656 C90.4668088,6.49172891 89.7342546,6.19103039 88.9740504,6.20731733 C88.2078327,6.20275763 87.4715327,6.50359715 86.9288069,7.04296867 C86.386081,7.58234018 86.0818994,8.31555162 86.0838626,9.07963299 L86.0838626,9.07963299 Z" id="Shape"></path>
                        </g>
                    </g>
                </g>
                <g id="Group" transform="translate(44.702602, 10.501859)" fill="#000000">
                    <path d="M2.7028149,0.369560088 C3.69219281,0.298393602 4.66126659,0.675700934 5.34330517,1.39763077 C6.02534376,2.11956061 6.34845654,3.11001757 6.22370889,4.09638502 C6.22370889,6.49255481 4.93169948,7.86992034 2.7028149,7.86992034 L0,7.86992034 L0,0.369560088 L2.7028149,0.369560088 Z M1.16219022,6.80920747 L2.57299572,6.80920747 C3.28005625,6.85157113 3.96852254,6.5723358 4.44723328,6.04903467 C4.92594403,5.52573355 5.1439343,4.81407878 5.04067637,4.11167023 C5.1364218,3.41217662 4.91529223,2.70639438 4.43776842,2.18736077 C3.96024461,1.66832716 3.27629877,1.39035833 2.57299572,1.42948105 L1.16219022,1.42948105 L1.16219022,6.80920747 Z" id="Shape"></path>
                    <path d="M7.53653551,5.03725484 C7.43970676,4.02270561 7.92504459,3.04084088 8.78899964,2.50345203 C9.65295468,1.96606319 10.7461516,1.96606319 11.6101067,2.50345203 C12.4740617,3.04084088 12.9593996,4.02270561 12.8625708,5.03725484 C12.9612418,6.05289428 12.476347,7.03666338 11.6116259,7.57520912 C10.7469049,8.11375485 9.65220147,8.11375485 8.78748039,7.57520912 C7.92275931,7.03666338 7.43786448,6.05289428 7.53653551,5.03725484 Z M11.7162945,5.03725484 C11.7162945,3.81032792 11.1664064,3.09282826 10.2013903,3.09282826 C9.2326874,3.09282826 8.6877528,3.81032792 8.6877528,5.03726741 C8.6877528,6.27402412 9.23272502,6.98599295 10.2013903,6.98599295 C11.1664315,6.98599295 11.7162945,6.26909666 11.7162945,5.03725484 L11.7162945,5.03725484 Z" id="Shape"></path>
                    <polygon id="Path" points="19.9423189 7.86980721 18.7862484 7.86980721 17.6191548 3.70105629 17.5309826 3.70105629 16.3687799 7.86980721 15.22372 7.86980721 13.6671814 2.20959222 14.7975438 2.20959222 15.8091102 6.52866862 15.8923916 6.52866862 17.0533654 2.20959222 18.1224926 2.20959222 19.2834664 6.52866862 19.3716386 6.52866862 20.3783016 2.20959222 21.4927377 2.20959222"></polygon>
                    <path d="M22.8018899,2.20959222 L23.8746915,2.20959222 L23.8746915,3.10876711 L23.9579729,3.10876711 C24.2475766,2.44673659 24.9242968,2.04176603 25.6431017,2.10033317 C26.1996699,2.05838906 26.7450673,2.27240474 27.1253012,2.68195295 C27.5055351,3.09150116 27.6793431,3.6521383 27.5976505,4.20556866 L27.5976505,7.86974436 L26.4832144,7.86974436 L26.4832144,4.48608236 C26.4832144,3.57647431 26.0888786,3.12411517 25.2646798,3.12411517 C24.8871681,3.10649082 24.520803,3.25499798 24.2616342,3.53070264 C24.0024654,3.80640731 23.8763406,4.18181249 23.9163259,4.55849854 L23.9163259,7.86980721 L22.8018899,7.86980721 L22.8018899,2.20959222 Z" id="Path"></path>
                    <polygon id="Path" points="29.3734094 0 30.4878454 0 30.4878454 7.86979464 29.3734094 7.86979464"></polygon>
                    <path d="M32.0370353,5.03725484 C31.9402809,4.02263924 32.4256953,3.04074966 33.2897144,2.50335252 C34.1537336,1.96595539 35.2469867,1.96595539 36.1110059,2.50335252 C36.975025,3.04074966 37.4604394,4.02263924 37.363685,5.03725484 C37.4622308,6.05293064 36.9772471,7.03667194 36.1124831,7.57519396 C35.2477191,8.11371597 34.1530012,8.11371597 33.2882372,7.57519396 C32.4234732,7.03667194 31.9384895,6.05293064 32.0370353,5.03725484 L32.0370353,5.03725484 Z M36.2167942,5.03725484 C36.2167942,3.81032792 35.6669061,3.09282826 34.7018901,3.09282826 C33.7331871,3.09282826 33.1882525,3.81032792 33.1882525,5.03726741 C33.1882525,6.27402412 33.7332248,6.98599295 34.7018901,6.98599295 C35.6669187,6.98599295 36.2167942,6.26909666 36.2167942,5.03725484 L36.2167942,5.03725484 Z" id="Shape"></path>
                    <path d="M38.5369109,6.26909666 C38.5369109,5.25022955 39.2937547,4.66285527 40.6371927,4.57937743 L42.1667943,4.49099726 L42.1667943,4.00243631 C42.1667943,3.4046163 41.7724585,3.06704705 41.0107238,3.06704705 C40.3886025,3.06704705 39.9575231,3.29598575 39.8338236,3.69616653 L38.7549023,3.69616653 C38.868795,2.72394696 39.7811661,2.10035831 41.0621524,2.10035831 C42.4778612,2.10035831 43.2763395,2.8067963 43.2763395,4.00243631 L43.2763395,7.86981978 L42.203538,7.86981978 L42.203538,7.07437311 L42.1153657,7.07437311 C41.751,7.6552692 41.103039,7.99477035 40.4192139,7.96307714 C39.9398361,8.01305802 39.4617361,7.85743909 39.1031089,7.53469219 C38.7444817,7.21194529 38.5387996,6.75219379 38.5369109,6.26909666 L38.5369109,6.26909666 Z M42.1667943,5.78543803 L42.1667943,5.31222514 L40.7878291,5.40060531 C40.010168,5.4527711 39.6574667,5.71792418 39.6574667,6.21691829 C39.6574667,6.72634556 40.0983403,7.02279811 40.7045979,7.02279811 C41.0634893,7.05921344 41.4217591,6.94807539 41.6973916,6.71482583 C41.9730241,6.48157627 42.1424176,6.14618783 42.1667943,5.78543803 Z" id="Shape"></path>
                    <path d="M44.741019,5.03725484 C44.741019,3.24872228 45.6582934,2.11569379 47.0850128,2.11569379 C47.805435,2.08242098 48.4801772,2.46935634 48.8166793,3.1087294 L48.8999607,3.1087294 L48.8999607,0 L50.0143968,0 L50.0143968,7.86979464 L48.9464985,7.86979464 L48.9464985,6.97552208 L48.8583263,6.97552208 C48.4963878,7.60959038 47.8133327,7.98998523 47.0850253,7.96307714 C45.6484992,7.96313999 44.741019,6.83008635 44.741019,5.03725484 Z M45.8922363,5.03725484 C45.8922363,6.23779718 46.4568093,6.96021173 47.4010206,6.96021173 C48.3403036,6.96021173 48.9208156,6.22737659 48.9208156,5.04216973 C48.9208156,3.86249371 48.3342089,3.11921284 47.4010206,3.11921284 C46.4628914,3.11921284 45.8921987,3.84652972 45.8921987,5.03725484 L45.8922363,5.03725484 Z" id="Shape"></path>
                    <path d="M54.6252352,5.03725484 C54.5284064,4.02270561 55.0137443,3.04084088 55.8776993,2.50345203 C56.7416543,1.96606319 57.8348513,1.96606319 58.6988064,2.50345203 C59.5627614,3.04084088 60.0480992,4.02270561 59.9512705,5.03725484 C60.0499415,6.05289428 59.5650467,7.03666338 58.7003256,7.57520912 C57.8356045,8.11375485 56.7409011,8.11375485 55.8761801,7.57520912 C55.011459,7.03666338 54.5265641,6.05289428 54.6252352,5.03725484 L54.6252352,5.03725484 Z M58.8049816,5.03725484 C58.8049816,3.81032792 58.255106,3.09282826 57.29009,3.09282826 C56.3213871,3.09282826 55.7764525,3.81032792 55.7764525,5.03726741 C55.7764525,6.27402412 56.3214247,6.98599295 57.29009,6.98599295 C58.2551186,6.98599295 58.8049816,6.26909666 58.8049816,5.03725484 Z" id="Shape"></path>
                    <path d="M61.4465738,2.20959222 L62.5193754,2.20959222 L62.5193754,3.10876711 L62.6026568,3.10876711 C62.8922605,2.44673659 63.5689806,2.04176603 64.2877856,2.10033317 C64.8443538,2.05838906 65.3897512,2.27240474 65.7699851,2.68195295 C66.150219,3.09150116 66.324027,3.6521383 66.2423344,4.20556866 L66.2423344,7.86974436 L65.1278983,7.86974436 L65.1278983,4.48608236 C65.1278983,3.57647431 64.7335625,3.12411517 63.9093637,3.12411517 C63.531852,3.10649082 63.1654869,3.25499798 62.9063181,3.53070264 C62.6471493,3.80640731 62.5210245,4.18181249 62.5610098,4.55849854 L62.5610098,7.86980721 L61.4465738,7.86980721 L61.4465738,2.20959222 Z" id="Path"></path>
                    <path d="M72.5395305,0.800374131 L72.5395305,2.23537344 L73.7629685,2.23537344 L73.7629685,3.17629353 L72.5395305,3.17629353 L72.5395305,6.08680549 C72.5395305,6.6797106 72.7832425,6.93933284 73.3380088,6.93933284 C73.4800369,6.93887723 73.6219224,6.9302694 73.7629685,6.91355163 L73.7629685,7.84402599 C73.5628342,7.87991445 73.3600621,7.89900754 73.1567611,7.90110669 C71.9174092,7.90110669 71.4238655,7.4640956 71.4238655,6.37281231 L71.4238655,3.17624325 L70.5274209,3.17624325 L70.5274209,2.23532316 L71.4238655,2.23532316 L71.4238655,0.800374131 L72.5395305,0.800374131 Z" id="Path"></path>
                    <path d="M75.2852088,0 L76.3898507,0 L76.3898507,3.11920027 L76.4780229,3.11920027 C76.7815377,2.45137573 77.4701015,2.0458891 78.1998327,2.10524806 C78.7532404,2.07506391 79.2912548,2.29379123 79.6673328,2.70185362 C80.0434109,3.10991601 80.2183817,3.66481129 80.1445873,4.21539845 L80.1445873,7.86980721 L79.0290352,7.86980721 L79.0290352,4.49097212 C79.0290352,3.58688233 78.6089287,3.12900493 77.8215236,3.12900493 C77.4338079,3.09713184 77.0518246,3.23841603 76.7776935,3.51508649 C76.5035624,3.79175695 76.3652361,4.175602 76.399695,4.56400423 L76.399695,7.86980721 L75.285259,7.86980721 L75.2852088,0 Z" id="Path"></path>
                    <path d="M86.6426822,6.34151283 C86.3301819,7.40918888 85.2994059,8.09902627 84.1958187,7.9790537 C83.4428423,7.99897751 82.71919,7.68613421 82.216864,7.12352858 C81.714538,6.56092295 81.4843213,5.80543191 81.5872958,5.05750522 C81.4870564,4.30749996 81.7164105,3.55079835 82.2159393,2.98343968 C82.715468,2.416081 83.4360179,2.09389321 84.1909154,2.10034574 C85.7621514,2.10034574 86.7100372,3.17634381 86.7100372,4.95375185 L86.7100372,5.34353719 L82.7225491,5.34353719 L82.7225491,5.40613614 C82.6872626,5.82615267 82.8303731,6.24160308 83.1166852,6.55031516 C83.4029973,6.85902725 83.8059447,7.0323563 84.2264301,7.0276753 C84.7716554,7.09328439 85.302395,6.82219618 85.5698806,6.34147512 L86.6426822,6.34151283 Z M82.722524,4.51738184 L85.5747463,4.51738184 C85.6031542,4.13324102 85.468401,3.75493799 85.2036943,3.47569892 C84.9389877,3.19645984 84.5689454,3.04225412 84.184758,3.05108306 C83.7953657,3.04617936 83.4205002,3.19910977 83.1451967,3.47518328 C82.8698932,3.75125679 82.7174866,4.12707326 82.7225491,4.51738184 L82.722524,4.51738184 Z" id="Shape"></path>
                </g>
            </g>
        </g>
    </g>
</svg>