<?xml version="1.0" encoding="UTF-8"?>
<svg width="1844px" height="67px" viewBox="0 0 1844 67" version="1.1" xmlns="http://www.w3.org/2000/svg" xmlns:xlink="http://www.w3.org/1999/xlink">
    <title>Tape Lines</title>
    <g id="Tape-Lines" stroke="none" stroke-width="1" fill="none" fill-rule="evenodd" stroke-linecap="round">
        <line x1="737.5" y1="8.12815353e-17" x2="737.5" y2="65" id="Line" stroke="#FFFFFF" stroke-width="3"></line>
        <line x1="783.5" y1="8.02394643e-17" x2="783.5" y2="35" id="Line" stroke="#FFFFFF" stroke-width="3"></line>
        <line x1="760.5" y1="8.25320204e-17" x2="760.5" y2="24" id="Sixteenth" stroke="#D447F0" stroke-width="3"></line>
        <line x1="806.5" y1="8.25320204e-17" x2="806.5" y2="24" id="Line" stroke="#FFFFFF" stroke-width="3"></line>
        <line x1="921.5" y1="8.11564868e-17" x2="921.5" y2="59" id="Line" stroke="#FFFFFF" stroke-width="3"></line>
        <line x1="898.5" y1="8.25320204e-17" x2="898.5" y2="24" id="Line" stroke="#FFFFFF" stroke-width="3"></line>
        <line x1="852.5" y1="8.25320204e-17" x2="852.5" y2="24" id="Line" stroke="#FFFFFF" stroke-width="3"></line>
        <line x1="875.5" y1="8.02394643e-17" x2="875.5" y2="35" id="Line" stroke="#FFFFFF" stroke-width="3"></line>
        <line x1="829.5" y1="9.38017705e-17" x2="829.5" y2="47" id="Line" stroke="#FFFFFF" stroke-width="3"></line>
        <line x1="967.5" y1="8.02394643e-17" x2="967.5" y2="35" id="Line" stroke="#FFFFFF" stroke-width="3"></line>
        <line x1="944.5" y1="8.25320204e-17" x2="944.5" y2="24" id="Line" stroke="#FFFFFF" stroke-width="3"></line>
        <line x1="990.5" y1="8.25320204e-17" x2="990.5" y2="24" id="Line" stroke="#FFFFFF" stroke-width="3"></line>
        <line x1="1105.5" y1="8.12815353e-17" x2="1105.5" y2="65" id="Line" stroke="#FFFFFF" stroke-width="3"></line>
        <line x1="1082.5" y1="8.25320204e-17" x2="1082.5" y2="24" id="Line" stroke="#FFFFFF" stroke-width="3"></line>
        <line x1="1036.5" y1="8.25320204e-17" x2="1036.5" y2="24" id="Line" stroke="#FFFFFF" stroke-width="3"></line>
        <line x1="1059.5" y1="8.02394643e-17" x2="1059.5" y2="35" id="Line" stroke="#FFFFFF" stroke-width="3"></line>
        <line x1="1013.5" y1="9.38017705e-17" x2="1013.5" y2="47" id="Line" stroke="#FFFFFF" stroke-width="3"></line>
        <line x1="1520.5" y1="8.02394643e-17" x2="1520.5" y2="35" id="Line" stroke="#FFFFFF" stroke-width="3"></line>
        <line x1="1497.5" y1="8.25320204e-17" x2="1497.5" y2="24" id="Line" stroke="#FFFFFF" stroke-width="3"></line>
        <line x1="1543.5" y1="8.25320204e-17" x2="1543.5" y2="24" id="Line" stroke="#FFFFFF" stroke-width="3"></line>
        <line x1="1658.5" y1="8.11564868e-17" x2="1658.5" y2="59" id="Line" stroke="#FFFFFF" stroke-width="3"></line>
        <line x1="1635.5" y1="8.25320204e-17" x2="1635.5" y2="24" id="Line" stroke="#FFFFFF" stroke-width="3"></line>
        <line x1="1589.5" y1="8.25320204e-17" x2="1589.5" y2="24" id="Line" stroke="#FFFFFF" stroke-width="3"></line>
        <line x1="1612.5" y1="8.02394643e-17" x2="1612.5" y2="35" id="Line" stroke="#FFFFFF" stroke-width="3"></line>
        <line x1="1566.5" y1="9.38017705e-17" x2="1566.5" y2="47" id="Line" stroke="#FFFFFF" stroke-width="3"></line>
        <line x1="1704.5" y1="8.02394643e-17" x2="1704.5" y2="35" id="Line" stroke="#FFFFFF" stroke-width="3"></line>
        <line x1="1681.5" y1="8.25320204e-17" x2="1681.5" y2="24" id="Line" stroke="#FFFFFF" stroke-width="3"></line>
        <line x1="1727.5" y1="8.25320204e-17" x2="1727.5" y2="24" id="Line" stroke="#FFFFFF" stroke-width="3"></line>
        <line x1="1842.5" y1="8.12815353e-17" x2="1842.5" y2="65" id="Line" stroke="#FFFFFF" stroke-width="3"></line>
        <line x1="1819.5" y1="8.25320204e-17" x2="1819.5" y2="24" id="Line" stroke="#FFFFFF" stroke-width="3"></line>
        <line x1="1773.5" y1="8.25320204e-17" x2="1773.5" y2="24" id="Line" stroke="#FFFFFF" stroke-width="3"></line>
        <line x1="1796.5" y1="8.02394643e-17" x2="1796.5" y2="35" id="Line" stroke="#FFFFFF" stroke-width="3"></line>
        <line x1="1750.5" y1="9.38017705e-17" x2="1750.5" y2="47" id="Line" stroke="#FFFFFF" stroke-width="3"></line>
        <line x1="0.5" y1="8.12815353e-17" x2="0.5" y2="65" id="Line" stroke="#FFFFFF" stroke-width="3"></line>
        <line x1="46.5" y1="8.02394643e-17" x2="46.5" y2="35" id="Line" stroke="#FFFFFF" stroke-width="3"></line>
        <line x1="23.5" y1="8.25320204e-17" x2="23.5" y2="24" id="Line" stroke="#FFFFFF" stroke-width="3"></line>
        <line x1="69.5" y1="8.25320204e-17" x2="69.5" y2="24" id="Line" stroke="#FFFFFF" stroke-width="3"></line>
        <line x1="184.5" y1="8.11564868e-17" x2="184.5" y2="59" id="Line" stroke="#FFFFFF" stroke-width="3"></line>
        <line x1="161.5" y1="8.25320204e-17" x2="161.5" y2="24" id="Line" stroke="#FFFFFF" stroke-width="3"></line>
        <line x1="115.5" y1="8.25320204e-17" x2="115.5" y2="24" id="Line" stroke="#FFFFFF" stroke-width="3"></line>
        <line x1="138.5" y1="8.02394643e-17" x2="138.5" y2="35" id="Line" stroke="#FFFFFF" stroke-width="3"></line>
        <line x1="92.5" y1="9.38017705e-17" x2="92.5" y2="47" id="Line" stroke="#FFFFFF" stroke-width="3"></line>
        <line x1="230.5" y1="8.02394643e-17" x2="230.5" y2="35" id="Line" stroke="#FFFFFF" stroke-width="3"></line>
        <line x1="207.5" y1="8.25320204e-17" x2="207.5" y2="24" id="Line" stroke="#FFFFFF" stroke-width="3"></line>
        <line x1="253.5" y1="8.25320204e-17" x2="253.5" y2="24" id="Line" stroke="#FFFFFF" stroke-width="3"></line>
        <line x1="345.5" y1="8.25320204e-17" x2="345.5" y2="24" id="Line" stroke="#FFFFFF" stroke-width="3"></line>
        <line x1="299.5" y1="8.25320204e-17" x2="299.5" y2="24" id="Line" stroke="#FFFFFF" stroke-width="3"></line>
        <line x1="322.5" y1="8.02394643e-17" x2="322.5" y2="35" id="Line" stroke="#FFFFFF" stroke-width="3"></line>
        <line x1="276.5" y1="9.38017705e-17" x2="276.5" y2="47" id="Line" stroke="#FFFFFF" stroke-width="3"></line>
        <line x1="368.5" y1="8.12815353e-17" x2="368.5" y2="65" id="Line" stroke="#FFFFFF" stroke-width="3"></line>
        <line x1="414.5" y1="8.02394643e-17" x2="414.5" y2="35" id="Line" stroke="#FFFFFF" stroke-width="3"></line>
        <line x1="391.5" y1="8.25320204e-17" x2="391.5" y2="24" id="Line" stroke="#FFFFFF" stroke-width="3"></line>
        <line x1="437.5" y1="8.25320204e-17" x2="437.5" y2="24" id="Line" stroke="#FFFFFF" stroke-width="3"></line>
        <line x1="552.5" y1="8.11564868e-17" x2="552.5" y2="59" id="Line" stroke="#FFFFFF" stroke-width="3"></line>
        <line x1="529.5" y1="8.25320204e-17" x2="529.5" y2="24" id="Line" stroke="#FFFFFF" stroke-width="3"></line>
        <line x1="483.5" y1="8.25320204e-17" x2="483.5" y2="24" id="Line" stroke="#FFFFFF" stroke-width="3"></line>
        <line x1="506.5" y1="8.02394643e-17" x2="506.5" y2="35" id="Line" stroke="#FFFFFF" stroke-width="3"></line>
        <line x1="460.5" y1="9.38017705e-17" x2="460.5" y2="47" id="Line" stroke="#FFFFFF" stroke-width="3"></line>
        <line x1="598.5" y1="8.02394643e-17" x2="598.5" y2="35" id="Line" stroke="#FFFFFF" stroke-width="3"></line>
        <line x1="575.5" y1="8.25320204e-17" x2="575.5" y2="24" id="Line" stroke="#FFFFFF" stroke-width="3"></line>
        <line x1="621.5" y1="8.25320204e-17" x2="621.5" y2="24" id="Line" stroke="#FFFFFF" stroke-width="3"></line>
        <line x1="713.5" y1="8.25320204e-17" x2="713.5" y2="24" id="Line" stroke="#FFFFFF" stroke-width="3"></line>
        <line x1="667.5" y1="8.25320204e-17" x2="667.5" y2="24" id="Line" stroke="#FFFFFF" stroke-width="3"></line>
        <line x1="690.5" y1="8.02394643e-17" x2="690.5" y2="35" id="Line" stroke="#FFFFFF" stroke-width="3"></line>
        <line x1="644.5" y1="9.38017705e-17" x2="644.5" y2="47" id="Line" stroke="#FFFFFF" stroke-width="3"></line>
        <line x1="368.5" y1="8.12815353e-17" x2="368.5" y2="65" id="Line" stroke="#FFFFFF" stroke-width="3"></line>
        <line x1="414.5" y1="8.02394643e-17" x2="414.5" y2="35" id="Line" stroke="#FFFFFF" stroke-width="3"></line>
        <line x1="391.5" y1="8.25320204e-17" x2="391.5" y2="24" id="Line" stroke="#FFFFFF" stroke-width="3"></line>
        <line x1="437.5" y1="8.25320204e-17" x2="437.5" y2="24" id="Line" stroke="#FFFFFF" stroke-width="3"></line>
        <line x1="552.5" y1="8.11564868e-17" x2="552.5" y2="59" id="Line" stroke="#FFFFFF" stroke-width="3"></line>
        <line x1="529.5" y1="8.25320204e-17" x2="529.5" y2="24" id="Line" stroke="#FFFFFF" stroke-width="3"></line>
        <line x1="483.5" y1="8.25320204e-17" x2="483.5" y2="24" id="Line" stroke="#FFFFFF" stroke-width="3"></line>
        <line x1="506.5" y1="8.02394643e-17" x2="506.5" y2="35" id="Line" stroke="#FFFFFF" stroke-width="3"></line>
        <line x1="460.5" y1="9.38017705e-17" x2="460.5" y2="47" id="Line" stroke="#FFFFFF" stroke-width="3"></line>
        <line x1="598.5" y1="8.02394643e-17" x2="598.5" y2="35" id="Line" stroke="#FFFFFF" stroke-width="3"></line>
        <line x1="575.5" y1="8.25320204e-17" x2="575.5" y2="24" id="Line" stroke="#FFFFFF" stroke-width="3"></line>
        <line x1="621.5" y1="8.25320204e-17" x2="621.5" y2="24" id="Line" stroke="#FFFFFF" stroke-width="3"></line>
        <line x1="713.5" y1="8.25320204e-17" x2="713.5" y2="24" id="Line" stroke="#FFFFFF" stroke-width="3"></line>
        <line x1="667.5" y1="8.25320204e-17" x2="667.5" y2="24" id="Line" stroke="#FFFFFF" stroke-width="3"></line>
        <line x1="690.5" y1="8.02394643e-17" x2="690.5" y2="35" id="Line" stroke="#FFFFFF" stroke-width="3"></line>
        <line x1="644.5" y1="9.38017705e-17" x2="644.5" y2="47" id="Line" stroke="#FFFFFF" stroke-width="3"></line>
        <line x1="1152.5" y1="8.02394643e-17" x2="1152.5" y2="35" id="Line" stroke="#FFFFFF" stroke-width="3"></line>
        <line x1="1129.5" y1="8.25320204e-17" x2="1129.5" y2="24" id="Line" stroke="#FFFFFF" stroke-width="3"></line>
        <line x1="1175.5" y1="8.25320204e-17" x2="1175.5" y2="24" id="Line" stroke="#FFFFFF" stroke-width="3"></line>
        <line x1="1290.5" y1="8.11564868e-17" x2="1290.5" y2="59" id="Line" stroke="#FFFFFF" stroke-width="3"></line>
        <line x1="1267.5" y1="8.25320204e-17" x2="1267.5" y2="24" id="Line" stroke="#FFFFFF" stroke-width="3"></line>
        <line x1="1221.5" y1="8.25320204e-17" x2="1221.5" y2="24" id="Line" stroke="#FFFFFF" stroke-width="3"></line>
        <line x1="1244.5" y1="8.02394643e-17" x2="1244.5" y2="35" id="Line" stroke="#FFFFFF" stroke-width="3"></line>
        <line x1="1198.5" y1="9.38017705e-17" x2="1198.5" y2="47" id="Line" stroke="#FFFFFF" stroke-width="3"></line>
        <line x1="1336.5" y1="8.02394643e-17" x2="1336.5" y2="35" id="Line" stroke="#FFFFFF" stroke-width="3"></line>
        <line x1="1313.5" y1="8.25320204e-17" x2="1313.5" y2="24" id="Line" stroke="#FFFFFF" stroke-width="3"></line>
        <line x1="1359.5" y1="8.25320204e-17" x2="1359.5" y2="24" id="Line" stroke="#FFFFFF" stroke-width="3"></line>
        <line x1="1474.5" y1="8.12815353e-17" x2="1474.5" y2="65" id="Line" stroke="#FFFFFF" stroke-width="3"></line>
        <line x1="1451.5" y1="8.25320204e-17" x2="1451.5" y2="24" id="Line" stroke="#FFFFFF" stroke-width="3"></line>
        <line x1="1405.5" y1="8.25320204e-17" x2="1405.5" y2="24" id="Line" stroke="#FFFFFF" stroke-width="3"></line>
        <line x1="1428.5" y1="8.02394643e-17" x2="1428.5" y2="35" id="Line" stroke="#FFFFFF" stroke-width="3"></line>
        <line x1="1382.5" y1="9.38017705e-17" x2="1382.5" y2="47" id="Line" stroke="#FFFFFF" stroke-width="3"></line>
    </g>
</svg>