<?xml version="1.0" encoding="UTF-8"?>
<svg width="324px" height="216px" viewBox="0 0 324 216" version="1.1" xmlns="http://www.w3.org/2000/svg" xmlns:xlink="http://www.w3.org/1999/xlink">
    <title>widget-group</title>
    <defs>
        <linearGradient x1="50%" y1="0%" x2="50%" y2="100%" id="linearGradient-1">
            <stop stop-color="#171717" offset="0%"></stop>
            <stop stop-color="#000000" offset="100%"></stop>
        </linearGradient>
        <rect id="path-2" x="0" y="0" width="208" height="208" rx="43"></rect>
        <filter x="-3.4%" y="-2.4%" width="106.7%" height="106.7%" filterUnits="objectBoundingBox" id="filter-3">
            <feOffset dx="0" dy="2" in="SourceAlpha" result="shadowOffsetOuter1"></feOffset>
            <feGaussianBlur stdDeviation="2" in="shadowOffsetOuter1" result="shadowBlurOuter1"></feGaussianBlur>
            <feColorMatrix values="0 0 0 0 0   0 0 0 0 0   0 0 0 0 0  0 0 0 0.5 0" type="matrix" in="shadowBlurOuter1"></feColorMatrix>
        </filter>
    </defs>
    <g id="Page-1" stroke="none" stroke-width="1" fill="none" fill-rule="evenodd">
        <g id="Tablet-Landing-Page" transform="translate(-253.000000, -1390.000000)">
            <g id="Widgets" transform="translate(0.000000, 1049.000000)">
                <g id="First-Class" transform="translate(47.000000, 79.000000)">
                    <g id="widget-group" transform="translate(210.938571, 264.000000)">
                        <g id="Home-Screen-Widget">
                            <g id="Rectangle">
                                <use fill="black" fill-opacity="1" filter="url(#filter-3)" xlink:href="#path-2"></use>
                                <use fill="url(#linearGradient-1)" fill-rule="evenodd" xlink:href="#path-2"></use>
                            </g>
                            <g id="1/16" transform="translate(68.000000, 45.315430)">
                                <g id="1" transform="translate(24.678711, 0.000000)" fill="#FFFFFF" fill-rule="nonzero">
                                    <polygon id="Path" points="11.3222656 43.6845703 20.3740234 43.6845703 20.3740234 0 11.2919922 0 0 7.84082031 0 15.9541016 11.140625 8.38574219 11.3222656 8.38574219"></polygon>
                                </g>
                                <g id="16" transform="translate(4.342529, 74.243164)" fill="#FFFFFF" fill-rule="nonzero">
                                    <polygon id="Path" points="11.3222656 44.4414062 20.3740234 44.4414062 20.3740234 0.756835938 11.2919922 0.756835938 0 8.59765625 0 16.7109375 11.140625 9.14257812 11.3222656 9.14257812"></polygon>
                                    <path d="M48.0288086,45.1982422 C51.2680664,45.1982422 54.1541341,44.5448405 56.6870117,43.2380371 C59.2198893,41.9312337 61.2154134,40.1299642 62.673584,37.8342285 C64.1317546,35.5384928 64.8608398,32.902181 64.8608398,29.925293 L64.8608398,29.8647461 C64.8608398,27.1300456 64.2604167,24.6955566 63.0595703,22.5612793 C61.858724,20.427002 60.1936849,18.749349 58.0644531,17.5283203 C55.9352214,16.3072917 53.4578451,15.6967773 50.6323242,15.6967773 C48.6645508,15.6967773 46.8885091,16.0020345 45.3041992,16.6125488 C43.7198893,17.2230632 42.3676758,18.0555827 41.2475586,19.1101074 C40.1274414,20.1646322 39.2797852,21.3680013 38.7045898,22.7202148 L38.0537109,22.7202148 L38.0537109,30.1220703 L39.9003906,30.1220703 L39.9003906,30.0766602 C39.9003906,28.5932617 40.2561035,27.2763672 40.9675293,26.1259766 C41.6789551,24.9755859 42.6477051,24.0749512 43.8737793,23.4240723 C45.0998535,22.7731934 46.4747721,22.4477539 47.9985352,22.4477539 C49.512207,22.4477539 50.8669434,22.7757161 52.0627441,23.4316406 C53.2585449,24.0875651 54.2045898,24.998291 54.9008789,26.1638184 C55.597168,27.3293457 55.9453125,28.6689453 55.9453125,30.1826172 L55.9453125,30.2431641 C55.9453125,31.6761068 55.584554,32.9753418 54.8630371,34.1408691 C54.1415202,35.3063965 53.1727702,36.2297363 51.9567871,36.9108887 C50.740804,37.592041 49.3911133,37.9326172 47.9077148,37.9326172 C46.4142253,37.9326172 45.0594889,37.5869954 43.8435059,36.895752 C42.6275228,36.2045085 41.6663411,35.2685547 40.9599609,34.0878906 C40.2535807,32.9072266 39.9003906,31.5852865 39.9003906,30.1220703 L38.5229492,22.8564453 C38.5229492,22.5537109 38.525472,22.2509766 38.5305176,21.9482422 C38.5355632,21.6455078 38.5481771,21.347819 38.5683594,21.0551758 C38.6894531,18.4718424 39.093099,16.1407878 39.7792969,14.0620117 C40.4654948,11.9832357 41.4897461,10.3282878 42.8520508,9.09716797 C44.2143555,7.86604818 45.9550781,7.25048828 48.0742188,7.25048828 C49.2750651,7.25048828 50.339681,7.43717448 51.2680664,7.81054688 C52.1964518,8.18391927 52.9886068,8.69856771 53.6445312,9.35449219 C54.3004557,10.0104167 54.805013,10.7823893 55.1582031,11.6704102 L55.2641602,11.9277344 L64.2856445,11.9277344 L64.2250977,11.6401367 C63.7911784,9.3898112 62.8350423,7.38671875 61.3566895,5.63085938 C59.8783366,3.875 58.006429,2.49755859 55.7409668,1.49853516 C53.4755046,0.499511719 50.930013,0 48.1044922,0 C44.3203125,0 41.0583496,0.915771484 38.3186035,2.74731445 C35.5788574,4.57885742 33.4723307,7.20760091 31.9990234,10.6335449 C30.5257161,14.0594889 29.7890625,18.1590169 29.7890625,22.9321289 L29.7890625,22.9926758 C29.7890625,26.6961263 30.2406413,29.9353841 31.1437988,32.7104492 C32.0469564,35.4855143 33.3184408,37.7989095 34.958252,39.6506348 C36.5980632,41.50236 38.525472,42.8898926 40.7404785,43.8132324 C42.955485,44.7365723 45.3849284,45.1982422 48.0288086,45.1982422 Z" id="Path"></path>
                                </g>
                                <line x1="0.5" y1="60.1845703" x2="72.5" y2="60.1845703" id="Line-2" stroke="#8E8E93" stroke-width="6" stroke-linecap="round"></line>
                            </g>
                        </g>
                        <g id="1/16" transform="translate(241.000000, 131.000000)">
                            <rect id="Rectangle" fill-opacity="0.26" fill="#FFFFFF" x="0" y="0" width="77" height="77" rx="8"></rect>
                            <g id="Group-2" transform="translate(24.000000, 14.000000)">
                                <g id="1" transform="translate(9.949153, 0.000000)" fill="#FFFFFF" fill-rule="nonzero">
                                    <polygon id="Path" points="4.44576523 18 8 18 8 0 4.43387816 0 0 3.23076923 0 6.57380457 4.37444279 3.45530146 4.44576523 3.45530146"></polygon>
                                </g>
                                <g id="16" transform="translate(1.949153, 31.000000)" fill="#FFFFFF" fill-rule="nonzero">
                                    <polygon id="Path" points="4.44576523 18 8 18 8 0 4.43387816 0 0 3.23076923 0 6.57380457 4.37444279 3.45530146 4.44576523 3.45530146"></polygon>
                                    <path d="M19.2809668,18 C20.5740181,18 21.7260826,17.7397857 22.7371601,17.219357 C23.7482377,16.6989283 24.5448137,15.9815807 25.1268882,15.0673141 C25.7089627,14.1530476 26,13.103148 26,11.9176155 L26,11.893503 C26,10.8044206 25.7603223,9.83489618 25.2809668,8.98492967 C24.8016113,8.13496316 24.1369587,7.46684528 23.2870091,6.98057602 C22.4370594,6.49430676 21.448137,6.25117214 20.3202417,6.25117214 C19.5347432,6.25117214 18.8257805,6.37273945 18.1933535,6.61587408 C17.5609265,6.85900871 17.021148,7.19055593 16.5740181,7.61051574 C16.1268882,8.03047555 15.7885196,8.50971199 15.5589124,9.04822505 L15.2990937,9.04822505 L15.2990937,11.9959812 L16.0362538,11.9959812 L16.0362538,11.9778969 C16.0362538,11.38714 16.1782477,10.8626926 16.4622356,10.4045546 C16.7462236,9.94641661 17.1329305,9.5877428 17.6223565,9.32853315 C18.1117825,9.06932351 18.6606244,8.93971869 19.2688822,8.93971869 C19.8731118,8.93971869 20.4138973,9.0703282 20.8912387,9.33154722 C21.3685801,9.59276624 21.7462236,9.95545881 22.0241692,10.4196249 C22.3021148,10.883791 22.4410876,11.4172806 22.4410876,12.0200938 L22.4410876,12.0442063 C22.4410876,12.6148694 22.2970796,13.132284 22.0090634,13.5964501 C21.7210473,14.0606162 21.3343404,14.4283322 20.8489426,14.6995981 C20.3635448,14.970864 19.8247734,15.106497 19.2326284,15.106497 C18.6364552,15.106497 18.0956697,14.9688547 17.6102719,14.69357 C17.1248741,14.4182853 16.7411883,14.0455459 16.4592145,13.5753516 C16.1772407,13.1051574 16.0362538,12.5787006 16.0362538,11.9959812 L15.4864048,9.10247823 C15.4864048,8.98191561 15.4874119,8.86135298 15.489426,8.74079035 C15.4914401,8.62022773 15.4964753,8.50167448 15.5045317,8.38513061 C15.5528701,7.35632954 15.713998,6.42799732 15.9879154,5.60013396 C16.2618328,4.7722706 16.6706949,4.11319491 17.2145015,3.6229069 C17.7583082,3.13261889 18.4531722,2.88747488 19.2990937,2.88747488 C19.7784491,2.88747488 20.203424,2.96182184 20.5740181,3.11051574 C20.9446123,3.25920965 21.2608258,3.46416611 21.5226586,3.72538513 C21.7844914,3.98660415 21.9859013,4.29403885 22.1268882,4.64768922 L22.1691843,4.75016745 L25.7703927,4.75016745 L25.7462236,4.63563295 C25.5730111,3.73945077 25.1913394,2.94172806 24.6012085,2.24246484 C24.0110775,1.54320161 23.2638469,0.994641661 22.3595166,0.596784997 C21.4551863,0.198928332 20.4390735,0 19.3111782,0 C17.8006042,0 16.4984894,0.364701942 15.4048338,1.09410583 C14.3111782,1.82350971 13.470292,2.87039518 12.8821752,4.23476222 C12.2940584,5.59912927 12,7.23174816 12,9.13261889 L12,9.15673141 C12,10.6316142 12.1802618,11.9216343 12.5407855,13.0267917 C12.9013092,14.1319491 13.408862,15.0532485 14.0634441,15.7906899 C14.7180262,16.5281313 15.4874119,17.08071 16.3716012,17.448426 C17.2557905,17.816142 18.2255791,18 19.2809668,18 Z" id="Path"></path>
                                </g>
                                <line x1="0.204782912" y1="24.2932203" x2="29.6935222" y2="24.2932203" id="Line-2" stroke="#FFFFFF" stroke-width="4" stroke-linecap="round"></line>
                            </g>
                        </g>
                        <g id="Small-Lock-Screen" transform="translate(241.000000, 0.000000)" fill="#FFFFFF">
                            <circle id="Oval" stroke-opacity="0.9" stroke="#FFFFFF" stroke-width="8" fill-opacity="0.46" cx="39" cy="39" r="35"></circle>
                            <g id="=" transform="translate(23.000000, 28.000000)" fill-opacity="0.9" fill-rule="nonzero">
                                <path d="M3.84472656,7.29589844 L28.09375,7.29589844 C30.6064453,7.29589844 31.9384766,5.78222656 31.9384766,3.6328125 C31.9384766,1.51367188 30.6064453,0 28.1240234,0 L3.84472656,0 C1.36230469,0 0,1.51367188 0,3.6328125 C0,5.78222656 1.36230469,7.29589844 3.84472656,7.29589844 Z M3.84472656,22.0390625 L28.09375,22.0390625 C30.6064453,22.0390625 31.9384766,20.5556641 31.9384766,18.40625 C31.9384766,16.2568359 30.6064453,14.7431641 28.1240234,14.7431641 L3.84472656,14.7431641 C1.36230469,14.7431641 0,16.2568359 0,18.40625 C0,20.5556641 1.36230469,22.0390625 3.84472656,22.0390625 Z" id="Shape"></path>
                            </g>
                        </g>
                    </g>
                </g>
            </g>
        </g>
    </g>
</svg>