<?xml version="1.0" encoding="UTF-8"?>
<svg width="181px" height="66px" viewBox="0 0 181 66" version="1.1" xmlns="http://www.w3.org/2000/svg" xmlns:xlink="http://www.w3.org/1999/xlink">
    <title>code-carton-logo</title>
    <defs>
        <path d="M99.751799,49.9998898 C99.751799,22.4041922 77.4033115,0 49.876632,0 C22.34922,0 0,22.4041922 0,49.9998898 C0,77.5952203 22.34922,100 49.876632,100 C77.4033115,100 99.751799,77.5952203 99.751799,49.9998898 Z" id="path-1"></path>
        <radialGradient cx="49.9605093%" cy="88.6732421%" fx="49.9605093%" fy="88.6732421%" r="84.5336761%" gradientTransform="translate(0.499605,0.886732),scale(1.000000,0.901626),rotate(-90.000000),translate(-0.499605,-0.886732)" id="radialGradient-3">
            <stop stop-color="#D447F0" offset="0%"></stop>
            <stop stop-color="#D447F0" offset="11%"></stop>
            <stop stop-color="#A855F7" offset="79%"></stop>
            <stop stop-color="#A456F7" offset="92%"></stop>
            <stop stop-color="#8B5CF6" offset="99%"></stop>
            <stop stop-color="#8B5CF6" offset="100%"></stop>
        </radialGradient>
        <path d="M14.784,13.728 C14.784,14.509 14.531,15.13875 14.025,15.61725 C13.519,16.09575 12.848,16.335 12.012,16.335 C11.176,16.335 10.549,16.1095 10.131,15.6585 C9.713,15.2075 9.504,14.619 9.504,13.893 L9.504,13.398 C9.504,12.903 9.34175,12.5125 9.01725,12.2265 C8.69275,11.9405 8.2445,11.7975 7.6725,11.7975 C7.1555,11.7975 6.688,11.946 6.27,12.243 C5.852,12.54 5.51925,12.97175 5.27175,13.53825 C5.02425,14.10475 4.9005,14.8005 4.9005,15.6255 C4.9005,16.8025 5.1095,17.78975 5.5275,18.58725 C5.9455,19.38475 6.512,19.98425 7.227,20.38575 C7.942,20.78725 8.745,20.988 9.636,20.988 C10.472,20.988 11.16775,20.85875 11.72325,20.60025 C12.27875,20.34175 12.771,19.987 13.2,19.536 C13.464,19.305 13.6675,19.151 13.8105,19.074 C13.9535,18.997 14.0965,18.9585 14.2395,18.9585 C14.4485,18.9695 14.61075,19.04925 14.72625,19.19775 C14.84175,19.34625 14.8995,19.5855 14.8995,19.9155 C14.8775,20.8285 14.57775,21.681 14.00025,22.473 C13.42275,23.265 12.617,23.903 11.583,24.387 C10.549,24.871 9.3445,25.113 7.9695,25.113 C6.4405,25.113 5.07375,24.79125 3.86925,24.14775 C2.66475,23.50425 1.71875,22.60225 1.03125,21.44175 C0.34375,20.28125 0,18.9255 0,17.3745 C0,15.8015 0.33825,14.388 1.01475,13.134 C1.69125,11.88 2.64825,10.89275 3.88575,10.17225 C5.12325,9.45175 6.589,9.0915 8.283,9.0915 C9.614,9.0915 10.76625,9.30325 11.73975,9.72675 C12.71325,10.15025 13.464,10.714 13.992,11.418 C14.52,12.122 14.784,12.892 14.784,13.728 Z" id="path-4"></path>
        <path d="M25.0635,9.0915 C26.7465,9.0915 28.215,9.4325 29.469,10.1145 C30.723,10.7965 31.69925,11.7425 32.39775,12.9525 C33.09625,14.1625 33.4455,15.5595 33.4455,17.1435 C33.4455,18.6285 33.08525,19.97325 32.36475,21.17775 C31.64425,22.38225 30.63775,23.33375 29.34525,24.03225 C28.05275,24.73075 26.554,25.08 24.849,25.08 C23.177,25.08 21.71125,24.739 20.45175,24.057 C19.19225,23.375 18.21325,22.42625 17.51475,21.21075 C16.81625,19.99525 16.467,18.59 16.467,16.995 C16.467,15.521 16.82725,14.18725 17.54775,12.99375 C18.26825,11.80025 19.272,10.8515 20.559,10.1475 C21.846,9.4435 23.3475,9.0915 25.0635,9.0915 Z M26.2515,22.242 C26.7245,22.132 27.104,21.835 27.39,21.351 C27.676,20.867 27.841,20.21525 27.885,19.39575 C27.929,18.57625 27.8135,17.6165 27.5385,16.5165 C27.2635,15.3505 26.9225,14.40725 26.5155,13.68675 C26.1085,12.96625 25.663,12.46025 25.179,12.16875 C24.695,11.87725 24.2055,11.792 23.7105,11.913 C23.2375,12.023 22.85525,12.3145 22.56375,12.7875 C22.27225,13.2605 22.1045,13.904 22.0605,14.718 C22.0165,15.532 22.132,16.5055 22.407,17.6385 C22.682,18.8045 23.023,19.745 23.43,20.46 C23.837,21.175 24.2825,21.67825 24.7665,21.96975 C25.2505,22.26125 25.7455,22.352 26.2515,22.242 Z" id="path-5"></path>
        <path d="M46.365,21.4995 L46.101,21.4005 L46.101,5.379 C46.101,4.95 46.04875,4.653 45.94425,4.488 C45.83975,4.323 45.6885,4.1965 45.4905,4.1085 L45.045,4.0095 C44.803,3.8775 44.6215,3.73175 44.5005,3.57225 C44.3795,3.41275 44.319,3.2065 44.319,2.9535 C44.319,2.6675 44.407,2.42 44.583,2.211 C44.759,2.002 45.0505,1.8205 45.4575,1.6665 L48.3945,0.5445 C48.8785,0.3465 49.2745,0.20625 49.5825,0.12375 C49.8905,0.04125 50.1875,0 50.4735,0 C50.8475,0 51.1335,0.11825 51.3315,0.35475 C51.5295,0.59125 51.6285,0.8965 51.6285,1.2705 L51.6285,20.7075 C51.6285,21.2025 51.67525,21.5435 51.76875,21.7305 C51.86225,21.9175 51.986,22.066 52.14,22.176 L52.47,22.3245 C52.701,22.4785 52.87975,22.649 53.00625,22.836 C53.13275,23.023 53.196,23.2595 53.196,23.5455 C53.196,23.9085 53.08325,24.1945 52.85775,24.4035 C52.63225,24.6125 52.3215,24.717 51.9255,24.717 L48.84,24.717 C48.158,24.717 47.575,24.48875 47.091,24.03225 C46.607,23.57575 46.365,23.023 46.365,22.374 L46.365,21.4995 Z M35.079,17.556 C35.079,15.807 35.41175,14.3 36.07725,13.035 C36.74275,11.77 37.65575,10.7965 38.81625,10.1145 C39.97675,9.4325 41.2885,9.0915 42.7515,9.0915 C44.0055,9.0915 45.10275,9.38025 46.04325,9.95775 C46.98375,10.53525 47.7785,11.3795 48.4275,12.4905 L46.959,14.355 C46.53,13.508 46.05425,12.9085 45.53175,12.5565 C45.00925,12.2045 44.4455,12.0285 43.8405,12.0285 C43.2465,12.0285 42.72125,12.21825 42.26475,12.59775 C41.80825,12.97725 41.45075,13.53 41.19225,14.256 C40.93375,14.982 40.8045,15.873 40.8045,16.929 C40.8045,18.007 40.942,18.90625 41.217,19.62675 C41.492,20.34725 41.86875,20.8835 42.34725,21.2355 C42.82575,21.5875 43.3675,21.7635 43.9725,21.7635 C44.6215,21.7635 45.21275,21.5655 45.74625,21.1695 C46.27975,20.7735 46.7445,20.1685 47.1405,19.3545 L48.081,20.559 C47.245,21.978 46.27425,23.09175 45.16875,23.90025 C44.06325,24.70875 42.812,25.113 41.415,25.113 C40.194,25.113 39.105,24.79675 38.148,24.16425 C37.191,23.53175 36.44025,22.649 35.89575,21.516 C35.35125,20.383 35.079,19.063 35.079,17.556 Z" id="path-6"></path>
        <path d="M69.795,14.916 C69.795,15.741 69.564,16.3735 69.102,16.8135 C68.64,17.2535 67.9855,17.4735 67.1385,17.4735 L58.146,17.4735 L58.146,15.609 L63.2115,15.609 C63.8935,15.609 64.2345,15.2735 64.2345,14.6025 C64.2345,13.6675 64.031,12.96625 63.624,12.49875 C63.217,12.03125 62.7165,11.7975 62.1225,11.7975 C61.6385,11.7975 61.20125,11.935 60.81075,12.21 C60.42025,12.485 60.11225,12.903 59.88675,13.464 C59.66125,14.025 59.5485,14.7345 59.5485,15.5925 C59.5485,17.4515 59.98025,18.8485 60.84375,19.7835 C61.70725,20.7185 62.8485,21.186 64.2675,21.186 C65.0375,21.186 65.74975,21.032 66.40425,20.724 C67.05875,20.416 67.6115,20.02 68.0625,19.536 C68.3045,19.316 68.49975,19.16475 68.64825,19.08225 C68.79675,18.99975 68.948,18.964 69.102,18.975 C69.278,18.975 69.432,19.0465 69.564,19.1895 C69.696,19.3325 69.762,19.5635 69.762,19.8825 C69.74,20.7845 69.4375,21.6315 68.8545,22.4235 C68.2715,23.2155 67.45475,23.86175 66.40425,24.36225 C65.35375,24.86275 64.1135,25.113 62.6835,25.113 C61.0445,25.113 59.61725,24.78575 58.40175,24.13125 C57.18625,23.47675 56.24575,22.561 55.58025,21.384 C54.91475,20.207 54.582,18.843 54.582,17.292 C54.582,15.719 54.90375,14.31375 55.54725,13.07625 C56.19075,11.83875 57.13125,10.86525 58.36875,10.15575 C59.60625,9.44625 61.116,9.0915 62.898,9.0915 C64.317,9.0915 65.54075,9.35275 66.56925,9.87525 C67.59775,10.39775 68.3925,11.099 68.9535,11.979 C69.5145,12.859 69.795,13.838 69.795,14.916 Z" id="path-7"></path>
        <path d="M14.784,35.728 C14.784,36.509 14.531,37.13875 14.025,37.61725 C13.519,38.09575 12.848,38.335 12.012,38.335 C11.176,38.335 10.549,38.1095 10.131,37.6585 C9.713,37.2075 9.504,36.619 9.504,35.893 L9.504,35.398 C9.504,34.903 9.34175,34.5125 9.01725,34.2265 C8.69275,33.9405 8.2445,33.7975 7.6725,33.7975 C7.1555,33.7975 6.688,33.946 6.27,34.243 C5.852,34.54 5.51925,34.97175 5.27175,35.53825 C5.02425,36.10475 4.9005,36.8005 4.9005,37.6255 C4.9005,38.8025 5.1095,39.78975 5.5275,40.58725 C5.9455,41.38475 6.512,41.98425 7.227,42.38575 C7.942,42.78725 8.745,42.988 9.636,42.988 C10.472,42.988 11.16775,42.85875 11.72325,42.60025 C12.27875,42.34175 12.771,41.987 13.2,41.536 C13.464,41.305 13.6675,41.151 13.8105,41.074 C13.9535,40.997 14.0965,40.9585 14.2395,40.9585 C14.4485,40.9695 14.61075,41.04925 14.72625,41.19775 C14.84175,41.34625 14.8995,41.5855 14.8995,41.9155 C14.8775,42.8285 14.57775,43.681 14.00025,44.473 C13.42275,45.265 12.617,45.903 11.583,46.387 C10.549,46.871 9.3445,47.113 7.9695,47.113 C6.4405,47.113 5.07375,46.79125 3.86925,46.14775 C2.66475,45.50425 1.71875,44.60225 1.03125,43.44175 C0.34375,42.28125 0,40.9255 0,39.3745 C0,37.8015 0.33825,36.388 1.01475,35.134 C1.69125,33.88 2.64825,32.89275 3.88575,32.17225 C5.12325,31.45175 6.589,31.0915 8.283,31.0915 C9.614,31.0915 10.76625,31.30325 11.73975,31.72675 C12.71325,32.15025 13.464,32.714 13.992,33.418 C14.52,34.122 14.784,34.892 14.784,35.728 Z" id="path-8"></path>
        <path d="M26.037,44.2915 L26.037,43.813 L25.542,43.681 L25.542,34.936 C25.542,34.375 25.399,33.9405 25.113,33.6325 C24.827,33.3245 24.4255,33.1705 23.9085,33.1705 C23.4905,33.1705 23.15225,33.264 22.89375,33.451 C22.63525,33.638 22.506,33.88 22.506,34.177 L22.506,35.0845 C22.506,35.8765 22.25575,36.4815 21.75525,36.8995 C21.25475,37.3175 20.5425,37.5265 19.6185,37.5265 C18.7825,37.5265 18.1665,37.34225 17.7705,36.97375 C17.3745,36.60525 17.1765,36.102 17.1765,35.464 C17.1765,34.749 17.47625,34.05875 18.07575,33.39325 C18.67525,32.72775 19.5745,32.1805 20.7735,31.7515 C21.9725,31.3225 23.4575,31.108 25.2285,31.108 C27.1975,31.108 28.655,31.5095 29.601,32.3125 C30.547,33.1155 31.02,34.221 31.02,35.629 L31.02,42.922 C31.02,43.109 31.0695,43.27125 31.1685,43.40875 C31.2675,43.54625 31.427,43.615 31.647,43.615 C31.779,43.615 31.88625,43.59575 31.96875,43.55725 C32.05125,43.51875 32.1255,43.472 32.1915,43.417 C32.2465,43.373 32.307,43.33175 32.373,43.29325 C32.439,43.25475 32.516,43.2355 32.604,43.2355 C32.835,43.2355 33.01375,43.3235 33.14025,43.4995 C33.26675,43.6755 33.33,43.8955 33.33,44.1595 C33.33,44.6215 33.1815,45.08075 32.8845,45.53725 C32.5875,45.99375 32.164,46.3705 31.614,46.6675 C31.064,46.9645 30.415,47.113 29.667,47.113 C28.622,47.113 27.75575,46.849 27.06825,46.321 C26.38075,45.793 26.037,45.1165 26.037,44.2915 Z M16.566,43.2685 C16.566,41.8055 17.20125,40.64775 18.47175,39.79525 C19.74225,38.94275 21.45,38.5165 23.595,38.5165 C24.167,38.5165 24.70325,38.555 25.20375,38.632 C25.70425,38.709 26.1195,38.819 26.4495,38.962 L25.905,40.645 C25.63,40.513 25.355,40.414 25.08,40.348 C24.805,40.282 24.5025,40.249 24.1725,40.249 C23.5565,40.249 23.06425,40.42225 22.69575,40.76875 C22.32725,41.11525 22.143,41.5855 22.143,42.1795 C22.143,42.7735 22.3135,43.23275 22.6545,43.55725 C22.9955,43.88175 23.441,44.044 23.991,44.044 C24.442,44.044 24.85725,43.94775 25.23675,43.75525 C25.61625,43.56275 25.9215,43.318 26.1525,43.021 L26.5485,44.671 C26.0315,45.441 25.289,46.0405 24.321,46.4695 C23.353,46.8985 22.3135,47.113 21.2025,47.113 C19.7835,47.113 18.656,46.75275 17.82,46.03225 C16.984,45.31175 16.566,44.3905 16.566,43.2685 Z" id="path-9"></path>
        <path d="M40.6725,38.3185 C40.6725,36.6685 40.87875,35.31 41.29125,34.243 C41.70375,33.176 42.26475,32.38125 42.97425,31.85875 C43.68375,31.33625 44.4895,31.075 45.3915,31.075 C46.3815,31.075 47.157,31.39675 47.718,32.04025 C48.279,32.68375 48.5595,33.6325 48.5595,34.8865 C48.5595,36.0525 48.33125,36.9105 47.87475,37.4605 C47.41825,38.0105 46.816,38.2855 46.068,38.2855 C45.298,38.2855 44.715,38.104 44.319,37.741 C43.923,37.378 43.725,36.8775 43.725,36.2395 L43.725,35.6125 C43.725,35.2935 43.659,35.0625 43.527,34.9195 C43.395,34.7765 43.208,34.705 42.966,34.705 C42.68,34.705 42.41325,34.826 42.16575,35.068 C41.91825,35.31 41.72025,35.67575 41.57175,36.16525 C41.42325,36.65475 41.349,37.2625 41.349,37.9885 L40.6725,38.3185 Z M41.0355,32.56 L41.349,35.8105 L41.349,42.7075 C41.349,43.1585 41.41775,43.50225 41.55525,43.73875 C41.69275,43.97525 41.9155,44.121 42.2235,44.176 L43.329,44.3245 C43.692,44.3795 43.95325,44.517 44.11275,44.737 C44.27225,44.957 44.352,45.2265 44.352,45.5455 C44.352,45.8975 44.23925,46.18075 44.01375,46.39525 C43.78825,46.60975 43.4665,46.717 43.0485,46.717 L35.607,46.717 C35.211,46.717 34.8975,46.6125 34.6665,46.4035 C34.4355,46.1945 34.32,45.9085 34.32,45.5455 C34.32,45.2595 34.38325,45.023 34.50975,44.836 C34.63625,44.649 34.815,44.4785 35.046,44.3245 L35.3925,44.176 C35.5575,44.077 35.684,43.93125 35.772,43.73875 C35.86,43.54625 35.904,43.2025 35.904,42.7075 L35.904,36.5035 C35.904,36.0745 35.85175,35.7775 35.74725,35.6125 C35.64275,35.4475 35.4915,35.321 35.2935,35.233 L34.8315,35.134 C34.6005,35.002 34.4245,34.85625 34.3035,34.69675 C34.1825,34.53725 34.122,34.331 34.122,34.078 C34.122,33.792 34.21,33.5445 34.386,33.3355 C34.562,33.1265 34.848,32.945 35.244,32.791 L38.247,31.636 C38.654,31.471 39.0005,31.3445 39.2865,31.2565 C39.5725,31.1685 39.82,31.1245 40.029,31.1245 C40.304,31.1245 40.524,31.22625 40.689,31.42975 C40.854,31.63325 40.9695,32.01 41.0355,32.56 Z" id="path-10"></path>
        <path d="M50.1765,34.0285 L49.731,33.8965 C49.467,33.7645 49.27725,33.5995 49.16175,33.4015 C49.04625,33.2035 48.9885,32.9615 48.9885,32.6755 C48.9885,32.3235 49.11225,32.03475 49.35975,31.80925 C49.60725,31.58375 49.9235,31.471 50.3085,31.471 L50.9355,31.471 C51.1445,31.471 51.34525,31.39675 51.53775,31.24825 C51.73025,31.09975 51.9475,30.8385 52.1895,30.4645 L53.361,28.6 C53.625,28.226 53.91925,27.92625 54.24375,27.70075 C54.56825,27.47525 54.89,27.3625 55.209,27.3625 C55.594,27.3625 55.902,27.478 56.133,27.709 C56.364,27.94 56.4795,28.281 56.4795,28.732 L56.4795,41.0905 C56.4795,41.7615 56.60875,42.2675 56.86725,42.6085 C57.12575,42.9495 57.5135,43.12 58.0305,43.12 C58.3275,43.12 58.5915,43.0595 58.8225,42.9385 C59.0535,42.8175 59.257,42.67175 59.433,42.50125 C59.609,42.33075 59.77675,42.185 59.93625,42.064 C60.09575,41.943 60.258,41.888 60.423,41.899 C60.61,41.899 60.76125,41.9815 60.87675,42.1465 C60.99225,42.3115 61.0445,42.5535 61.0335,42.8725 C61.0335,43.6095 60.8025,44.297 60.3405,44.935 C59.8785,45.573 59.25975,46.09 58.48425,46.486 C57.70875,46.882 56.8425,47.08 55.8855,47.08 C54.2795,47.08 53.05575,46.68675 52.21425,45.90025 C51.37275,45.11375 50.952,43.89 50.952,42.229 L50.952,35.365 C50.952,34.958 50.89425,34.66375 50.77875,34.48225 C50.66325,34.30075 50.4625,34.1495 50.1765,34.0285 Z M54.4665,34.21 L54.4665,31.471 L59.8785,31.471 C60.2635,31.471 60.566,31.559 60.786,31.735 C61.006,31.911 61.116,32.164 61.116,32.494 C61.116,32.989 60.90425,33.39875 60.48075,33.72325 C60.05725,34.04775 59.367,34.21 58.41,34.21 L54.4665,34.21 Z" id="path-11"></path>
        <path d="M70.917,31.0915 C72.6,31.0915 74.0685,31.4325 75.3225,32.1145 C76.5765,32.7965 77.55275,33.7425 78.25125,34.9525 C78.94975,36.1625 79.299,37.5595 79.299,39.1435 C79.299,40.6285 78.93875,41.97325 78.21825,43.17775 C77.49775,44.38225 76.49125,45.33375 75.19875,46.03225 C73.90625,46.73075 72.4075,47.08 70.7025,47.08 C69.0305,47.08 67.56475,46.739 66.30525,46.057 C65.04575,45.375 64.06675,44.42625 63.36825,43.21075 C62.66975,41.99525 62.3205,40.59 62.3205,38.995 C62.3205,37.521 62.68075,36.18725 63.40125,34.99375 C64.12175,33.80025 65.1255,32.8515 66.4125,32.1475 C67.6995,31.4435 69.201,31.0915 70.917,31.0915 Z M72.105,44.242 C72.578,44.132 72.9575,43.835 73.2435,43.351 C73.5295,42.867 73.6945,42.21525 73.7385,41.39575 C73.7825,40.57625 73.667,39.6165 73.392,38.5165 C73.117,37.3505 72.776,36.40725 72.369,35.68675 C71.962,34.96625 71.5165,34.46025 71.0325,34.16875 C70.5485,33.87725 70.059,33.792 69.564,33.913 C69.091,34.023 68.70875,34.3145 68.41725,34.7875 C68.12575,35.2605 67.958,35.904 67.914,36.718 C67.87,37.532 67.9855,38.5055 68.2605,39.6385 C68.5355,40.8045 68.8765,41.745 69.2835,42.46 C69.6905,43.175 70.136,43.67825 70.62,43.96975 C71.104,44.26125 71.599,44.352 72.105,44.242 Z" id="path-12"></path>
        <path d="M88.1265,32.395 L88.1265,42.7075 C88.1265,43.2355 88.16225,43.60675 88.23375,43.82125 C88.30525,44.03575 88.4345,44.198 88.6215,44.308 L88.968,44.4895 C89.353,44.7535 89.5455,45.1055 89.5455,45.5455 C89.5455,46.3265 89.166,46.717 88.407,46.717 L82.302,46.717 C81.917,46.717 81.609,46.6125 81.378,46.4035 C81.147,46.1945 81.0315,45.9085 81.0315,45.5455 C81.0315,45.2595 81.09475,45.023 81.22125,44.836 C81.34775,44.649 81.5265,44.4785 81.7575,44.3245 L82.0875,44.176 C82.2635,44.077 82.39275,43.93125 82.47525,43.73875 C82.55775,43.54625 82.599,43.2025 82.599,42.7075 L82.599,36.5035 C82.599,36.0745 82.5495,35.7775 82.4505,35.6125 C82.3515,35.4475 82.1975,35.321 81.9885,35.233 L81.543,35.134 C81.312,35.002 81.13325,34.85625 81.00675,34.69675 C80.88025,34.53725 80.817,34.331 80.817,34.078 C80.817,33.792 80.905,33.5445 81.081,33.3355 C81.257,33.1265 81.5485,32.945 81.9555,32.791 L84.8925,31.669 C85.3765,31.471 85.7725,31.33075 86.0805,31.24825 C86.3885,31.16575 86.691,31.1245 86.988,31.1245 C87.351,31.1245 87.6315,31.24275 87.8295,31.47925 C88.0275,31.71575 88.1265,32.021 88.1265,32.395 Z M87.5985,36.652 L86.5425,35.431 L87.285,34.705 C88.605,33.374 89.793,32.43625 90.849,31.89175 C91.905,31.34725 92.895,31.075 93.819,31.075 C95.183,31.075 96.26925,31.5205 97.07775,32.4115 C97.88625,33.3025 98.2905,34.496 98.2905,35.992 L98.2905,42.7075 C98.2905,43.2025 98.33175,43.54625 98.41425,43.73875 C98.49675,43.93125 98.626,44.077 98.802,44.176 L99.132,44.3245 C99.363,44.4895 99.54175,44.66275 99.66825,44.84425 C99.79475,45.02575 99.858,45.2595 99.858,45.5455 C99.858,45.9085 99.74525,46.1945 99.51975,46.4035 C99.29425,46.6125 98.9835,46.717 98.5875,46.717 L92.499,46.717 C91.729,46.717 91.344,46.3265 91.344,45.5455 C91.344,45.1055 91.5365,44.7535 91.9215,44.4895 L92.268,44.308 C92.455,44.198 92.58425,44.03575 92.65575,43.82125 C92.72725,43.60675 92.763,43.2355 92.763,42.7075 L92.763,37.3615 C92.763,36.6025 92.587,36.025 92.235,35.629 C91.883,35.233 91.3935,35.035 90.7665,35.035 C90.3485,35.035 89.91675,35.12025 89.47125,35.29075 C89.02575,35.46125 88.5885,35.7445 88.1595,36.1405 L87.5985,36.652 Z" id="path-13"></path>
    </defs>
    <g id="Page-1" stroke="none" stroke-width="1" fill="none" fill-rule="evenodd">
        <g id="Large" transform="translate(-255.000000, -66.000000)">
            <g id="code-carton-logo" transform="translate(235.000000, 49.000000)">
                <g id="Pictorial">
                    <path d="M99.751799,49.9998898 C99.751799,22.4041922 77.4033115,0 49.876632,0 C22.34922,0 0,22.4041922 0,49.9998898 C0,77.5952203 22.34922,100 49.876632,100 C77.4033115,100 99.751799,77.5952203 99.751799,49.9998898 Z" id="Path"></path>
                    <g id="Clipped">
                        <mask id="mask-2" fill="white">
                            <use xlink:href="#path-1"></use>
                        </mask>
                        <g id="Path"></g>
                        <g id="Group" mask="url(#mask-2)" fill="url(#radialGradient-3)">
                            <g transform="translate(20.328297, 17.226661)" id="Shape">
                                <path d="M24.9322096,1.23950414 C26.3602802,0.413168048 27.9539883,0 29.5478264,0 C31.1415345,0 32.7356326,0.413168048 34.1637032,1.23950414 L54.480556,12.9985014 C57.3369572,14.6524769 59.0960428,17.7075744 59.0960428,21.0129188 L59.0960428,44.5309133 C59.0960428,47.837561 57.3369572,50.8926585 54.480556,52.5453307 L34.1633132,64.304328 C31.3073019,65.9570002 27.7883508,65.9570002 24.9322096,64.304328 L4.6156168,52.5453307 C1.75947557,50.8926585 0,47.837561 0,44.5309133 L0,21.0129188 C0,17.7075744 1.75947557,14.6524769 4.6156168,12.9985014 L24.9322096,1.23950414 Z M11.4906119,24.9947118 L21.9805083,31.3043223 L25.1272301,29.3818527 C25.8629777,28.9321903 26.4597407,27.6301244 26.4597407,26.4753393 L26.4597407,13.7896465 C26.4597407,12.6348614 25.8638878,12.0665924 25.1291803,12.5201649 L11.1774089,21.1250086 C9.1155214,22.4844227 9.82695643,24.0002411 11.4906119,24.9947118 Z M7.1101899,23.5831629 L7.1101899,39.7410314 C7.1101899,41.7286694 8.05447949,42.8274097 9.17883808,43.647229 L25.1289203,53.4772397 C25.8640178,53.9295088 26.4598707,53.3599365 26.4598707,52.2051514 L26.4598707,39.6119978 C26.4598707,38.4559093 25.8637578,37.1525401 25.1282702,36.7015743 L9.64207694,27.1843721 C7.69265133,25.9878792 7.23318287,24.6714763 7.1101899,23.5831629 Z M48.3205063,24.9947118 C49.9846818,24.0002411 50.6958568,22.4844227 48.6338393,21.1250086 L34.6820679,12.5201649 C33.9473604,12.0665924 33.3513775,12.6348614 33.3513775,13.7896465 L33.3513775,26.4753393 C33.3513775,27.6301244 33.9482705,28.9321903 34.6840181,29.3818527 L37.8306099,31.3043223 L48.3205063,24.9947118 Z M52.7006683,23.5818596 C52.5784554,24.6714763 52.1182068,25.9878792 50.1693013,27.1843721 L34.682978,36.7015743 C33.9474904,37.1525401 33.3513775,38.4559093 33.3513775,39.6119978 L33.3513775,52.2051514 C33.3513775,53.3612399 33.9472304,53.9295088 34.6823279,53.4772397 L50.6321501,43.647229 C51.7567687,42.8274097 52.7006683,41.7286694 52.7006683,39.7410314 L52.7006683,23.5818596 Z"></path>
                            </g>
                        </g>
                    </g>
                </g>
                <g id="code-carton" transform="translate(100.576799, 25.282921)" fill="#FFFFFF" fill-rule="nonzero">
                    <g id="Path">
                        <use xlink:href="#path-4"></use>
                        <use xlink:href="#path-4"></use>
                    </g>
                    <g id="Shape">
                        <use xlink:href="#path-5"></use>
                        <use xlink:href="#path-5"></use>
                    </g>
                    <g id="Shape">
                        <use xlink:href="#path-6"></use>
                        <use xlink:href="#path-6"></use>
                    </g>
                    <g id="Path">
                        <use xlink:href="#path-7"></use>
                        <use xlink:href="#path-7"></use>
                    </g>
                    <g id="Path">
                        <use xlink:href="#path-8"></use>
                        <use xlink:href="#path-8"></use>
                    </g>
                    <g id="Shape">
                        <use xlink:href="#path-9"></use>
                        <use xlink:href="#path-9"></use>
                    </g>
                    <g id="Shape">
                        <use xlink:href="#path-10"></use>
                        <use xlink:href="#path-10"></use>
                    </g>
                    <g id="Shape">
                        <use xlink:href="#path-11"></use>
                        <use xlink:href="#path-11"></use>
                    </g>
                    <g id="Shape">
                        <use xlink:href="#path-12"></use>
                        <use xlink:href="#path-12"></use>
                    </g>
                    <g id="Shape">
                        <use xlink:href="#path-13"></use>
                        <use xlink:href="#path-13"></use>
                    </g>
                </g>
            </g>
        </g>
    </g>
</svg>