<?xml version="1.0" encoding="UTF-8"?>
<svg width="146px" height="25px" viewBox="0 0 146 25" version="1.1" xmlns="http://www.w3.org/2000/svg" xmlns:xlink="http://www.w3.org/1999/xlink">
    <title>Fractions</title>
    <defs>
        <path d="M12.375,0.6435 C12.87,0.6435 13.28525,0.5885 13.62075,0.4785 C13.95625,0.3685 14.26975,0.26125 14.56125,0.15675 C14.85275,0.05225 15.1635,0 15.4935,0 C16.0765,0 16.511,0.16225 16.797,0.48675 C17.083,0.81125 17.325,1.32 17.523,2.013 L18.645,6.105 C18.755,6.512 18.69725,6.8585 18.47175,7.1445 C18.24625,7.4305 17.9245,7.612 17.5065,7.689 C17.1875,7.744 16.874,7.7055 16.566,7.5735 C16.258,7.4415 15.9995,7.1335 15.7905,6.6495 C15.4165,5.7145 15.05075,5.02425 14.69325,4.57875 C14.33575,4.13325 13.9425,3.839 13.5135,3.696 C13.0845,3.553 12.5565,3.4815 11.9295,3.4815 L8.6295,3.4815 L8.6295,19.206 C8.6295,19.613 8.70375,19.91825 8.85225,20.12175 C9.00075,20.32525 9.229,20.482 9.537,20.592 L10.6425,20.9385 C10.9725,21.0595 11.2145,21.23 11.3685,21.45 C11.5225,21.67 11.5995,21.967 11.5995,22.341 C11.5995,22.781 11.47025,23.12475 11.21175,23.37225 C10.95325,23.61975 10.56,23.7435 10.032,23.7435 L1.5675,23.7435 C1.0505,23.7435 0.66,23.61975 0.396,23.37225 C0.132,23.12475 -4.54747351e-13,22.781 -4.54747351e-13,22.341 C-4.54747351e-13,21.659 0.319,21.1585 0.957,20.8395 L1.584,20.592 C1.881,20.46 2.101,20.295 2.244,20.097 C2.387,19.899 2.4585,19.602 2.4585,19.206 L2.4585,5.181 C2.4585,4.785 2.387,4.488 2.244,4.29 C2.101,4.092 1.881,3.927 1.584,3.795 L0.957,3.5475 C0.319,3.2285 -4.54747351e-13,2.728 -4.54747351e-13,2.046 C-4.54747351e-13,1.606 0.132,1.26225 0.396,1.01475 C0.66,0.76725 1.0505,0.6435 1.5675,0.6435 L12.375,0.6435 Z M5.94,11.6325 L11.451,11.6325 C12.023,11.6325 12.41075,11.517 12.61425,11.286 C12.81775,11.055 12.9855,10.6645 13.1175,10.1145 C13.2165,9.7515 13.37325,9.48475 13.58775,9.31425 C13.80225,9.14375 14.0635,9.053 14.3715,9.042 C15.0425,9.031 15.466,9.405 15.642,10.164 L16.6815,14.52 C16.7915,15.004 16.7805,15.39175 16.6485,15.68325 C16.5165,15.97475 16.2635,16.181 15.8895,16.302 C15.5925,16.401 15.2955,16.39275 14.9985,16.27725 C14.7015,16.16175 14.454,15.95 14.256,15.642 C14.047,15.29 13.849,15.0205 13.662,14.8335 C13.475,14.6465 13.24125,14.51725 12.96075,14.44575 C12.68025,14.37425 12.2925,14.3385 11.7975,14.3385 L5.94,14.3385 L5.94,11.6325 Z" id="path-1"></path>
        <path d="M26.2845,15.345 C26.2845,13.695 26.49075,12.3365 26.90325,11.2695 C27.31575,10.2025 27.87675,9.40775 28.58625,8.88525 C29.29575,8.36275 30.1015,8.1015 31.0035,8.1015 C31.9935,8.1015 32.769,8.42325 33.33,9.06675 C33.891,9.71025 34.1715,10.659 34.1715,11.913 C34.1715,13.079 33.94325,13.937 33.48675,14.487 C33.03025,15.037 32.428,15.312 31.68,15.312 C30.91,15.312 30.327,15.1305 29.931,14.7675 C29.535,14.4045 29.337,13.904 29.337,13.266 L29.337,12.639 C29.337,12.32 29.271,12.089 29.139,11.946 C29.007,11.803 28.82,11.7315 28.578,11.7315 C28.292,11.7315 28.02525,11.8525 27.77775,12.0945 C27.53025,12.3365 27.33225,12.70225 27.18375,13.19175 C27.03525,13.68125 26.961,14.289 26.961,15.015 L26.2845,15.345 Z M26.6475,9.5865 L26.961,12.837 L26.961,19.734 C26.961,20.185 27.02975,20.52875 27.16725,20.76525 C27.30475,21.00175 27.5275,21.1475 27.8355,21.2025 L28.941,21.351 C29.304,21.406 29.56525,21.5435 29.72475,21.7635 C29.88425,21.9835 29.964,22.253 29.964,22.572 C29.964,22.924 29.85125,23.20725 29.62575,23.42175 C29.40025,23.63625 29.0785,23.7435 28.6605,23.7435 L21.219,23.7435 C20.823,23.7435 20.5095,23.639 20.2785,23.43 C20.0475,23.221 19.932,22.935 19.932,22.572 C19.932,22.286 19.99525,22.0495 20.12175,21.8625 C20.24825,21.6755 20.427,21.505 20.658,21.351 L21.0045,21.2025 C21.1695,21.1035 21.296,20.95775 21.384,20.76525 C21.472,20.57275 21.516,20.229 21.516,19.734 L21.516,13.53 C21.516,13.101 21.46375,12.804 21.35925,12.639 C21.25475,12.474 21.1035,12.3475 20.9055,12.2595 L20.4435,12.1605 C20.2125,12.0285 20.0365,11.88275 19.9155,11.72325 C19.7945,11.56375 19.734,11.3575 19.734,11.1045 C19.734,10.8185 19.822,10.571 19.998,10.362 C20.174,10.153 20.46,9.9715 20.856,9.8175 L23.859,8.6625 C24.266,8.4975 24.6125,8.371 24.8985,8.283 C25.1845,8.195 25.432,8.151 25.641,8.151 C25.916,8.151 26.136,8.25275 26.301,8.45625 C26.466,8.65975 26.5815,9.0365 26.6475,9.5865 Z" id="path-2"></path>
        <path d="M44.7975,21.318 L44.7975,20.8395 L44.3025,20.7075 L44.3025,11.9625 C44.3025,11.4015 44.1595,10.967 43.8735,10.659 C43.5875,10.351 43.186,10.197 42.669,10.197 C42.251,10.197 41.91275,10.2905 41.65425,10.4775 C41.39575,10.6645 41.2665,10.9065 41.2665,11.2035 L41.2665,12.111 C41.2665,12.903 41.01625,13.508 40.51575,13.926 C40.01525,14.344 39.303,14.553 38.379,14.553 C37.543,14.553 36.927,14.36875 36.531,14.00025 C36.135,13.63175 35.937,13.1285 35.937,12.4905 C35.937,11.7755 36.23675,11.08525 36.83625,10.41975 C37.43575,9.75425 38.335,9.207 39.534,8.778 C40.733,8.349 42.218,8.1345 43.989,8.1345 C45.958,8.1345 47.4155,8.536 48.3615,9.339 C49.3075,10.142 49.7805,11.2475 49.7805,12.6555 L49.7805,19.9485 C49.7805,20.1355 49.83,20.29775 49.929,20.43525 C50.028,20.57275 50.1875,20.6415 50.4075,20.6415 C50.5395,20.6415 50.64675,20.62225 50.72925,20.58375 C50.81175,20.54525 50.886,20.4985 50.952,20.4435 C51.007,20.3995 51.0675,20.35825 51.1335,20.31975 C51.1995,20.28125 51.2765,20.262 51.3645,20.262 C51.5955,20.262 51.77425,20.35 51.90075,20.526 C52.02725,20.702 52.0905,20.922 52.0905,21.186 C52.0905,21.648 51.942,22.10725 51.645,22.56375 C51.348,23.02025 50.9245,23.397 50.3745,23.694 C49.8245,23.991 49.1755,24.1395 48.4275,24.1395 C47.3825,24.1395 46.51625,23.8755 45.82875,23.3475 C45.14125,22.8195 44.7975,22.143 44.7975,21.318 Z M35.3265,20.295 C35.3265,18.832 35.96175,17.67425 37.23225,16.82175 C38.50275,15.96925 40.2105,15.543 42.3555,15.543 C42.9275,15.543 43.46375,15.5815 43.96425,15.6585 C44.46475,15.7355 44.88,15.8455 45.21,15.9885 L44.6655,17.6715 C44.3905,17.5395 44.1155,17.4405 43.8405,17.3745 C43.5655,17.3085 43.263,17.2755 42.933,17.2755 C42.317,17.2755 41.82475,17.44875 41.45625,17.79525 C41.08775,18.14175 40.9035,18.612 40.9035,19.206 C40.9035,19.8 41.074,20.25925 41.415,20.58375 C41.756,20.90825 42.2015,21.0705 42.7515,21.0705 C43.2025,21.0705 43.61775,20.97425 43.99725,20.78175 C44.37675,20.58925 44.682,20.3445 44.913,20.0475 L45.309,21.6975 C44.792,22.4675 44.0495,23.067 43.0815,23.496 C42.1135,23.925 41.074,24.1395 39.963,24.1395 C38.544,24.1395 37.4165,23.77925 36.5805,23.05875 C35.7445,22.33825 35.3265,21.417 35.3265,20.295 Z" id="path-3"></path>
        <path d="M67.782,12.7545 C67.782,13.5355 67.529,14.16525 67.023,14.64375 C66.517,15.12225 65.846,15.3615 65.01,15.3615 C64.174,15.3615 63.547,15.136 63.129,14.685 C62.711,14.234 62.502,13.6455 62.502,12.9195 L62.502,12.4245 C62.502,11.9295 62.33975,11.539 62.01525,11.253 C61.69075,10.967 61.2425,10.824 60.6705,10.824 C60.1535,10.824 59.686,10.9725 59.268,11.2695 C58.85,11.5665 58.51725,11.99825 58.26975,12.56475 C58.02225,13.13125 57.8985,13.827 57.8985,14.652 C57.8985,15.829 58.1075,16.81625 58.5255,17.61375 C58.9435,18.41125 59.51,19.01075 60.225,19.41225 C60.94,19.81375 61.743,20.0145 62.634,20.0145 C63.47,20.0145 64.16575,19.88525 64.72125,19.62675 C65.27675,19.36825 65.769,19.0135 66.198,18.5625 C66.462,18.3315 66.6655,18.1775 66.8085,18.1005 C66.9515,18.0235 67.0945,17.985 67.2375,17.985 C67.4465,17.996 67.60875,18.07575 67.72425,18.22425 C67.83975,18.37275 67.8975,18.612 67.8975,18.942 C67.8755,19.855 67.57575,20.7075 66.99825,21.4995 C66.42075,22.2915 65.615,22.9295 64.581,23.4135 C63.547,23.8975 62.3425,24.1395 60.9675,24.1395 C59.4385,24.1395 58.07175,23.81775 56.86725,23.17425 C55.66275,22.53075 54.71675,21.62875 54.02925,20.46825 C53.34175,19.30775 52.998,17.952 52.998,16.401 C52.998,14.828 53.33625,13.4145 54.01275,12.1605 C54.68925,10.9065 55.64625,9.91925 56.88375,9.19875 C58.12125,8.47825 59.587,8.118 61.281,8.118 C62.612,8.118 63.76425,8.32975 64.73775,8.75325 C65.71125,9.17675 66.462,9.7405 66.99,10.4445 C67.518,11.1485 67.782,11.9185 67.782,12.7545 Z" id="path-4"></path>
        <path d="M70.026,11.055 L69.5805,10.923 C69.3165,10.791 69.12675,10.626 69.01125,10.428 C68.89575,10.23 68.838,9.988 68.838,9.702 C68.838,9.35 68.96175,9.06125 69.20925,8.83575 C69.45675,8.61025 69.773,8.4975 70.158,8.4975 L70.785,8.4975 C70.994,8.4975 71.19475,8.42325 71.38725,8.27475 C71.57975,8.12625 71.797,7.865 72.039,7.491 L73.2105,5.6265 C73.4745,5.2525 73.76875,4.95275 74.09325,4.72725 C74.41775,4.50175 74.7395,4.389 75.0585,4.389 C75.4435,4.389 75.7515,4.5045 75.9825,4.7355 C76.2135,4.9665 76.329,5.3075 76.329,5.7585 L76.329,18.117 C76.329,18.788 76.45825,19.294 76.71675,19.635 C76.97525,19.976 77.363,20.1465 77.88,20.1465 C78.177,20.1465 78.441,20.086 78.672,19.965 C78.903,19.844 79.1065,19.69825 79.2825,19.52775 C79.4585,19.35725 79.62625,19.2115 79.78575,19.0905 C79.94525,18.9695 80.1075,18.9145 80.2725,18.9255 C80.4595,18.9255 80.61075,19.008 80.72625,19.173 C80.84175,19.338 80.894,19.58 80.883,19.899 C80.883,20.636 80.652,21.3235 80.19,21.9615 C79.728,22.5995 79.10925,23.1165 78.33375,23.5125 C77.55825,23.9085 76.692,24.1065 75.735,24.1065 C74.129,24.1065 72.90525,23.71325 72.06375,22.92675 C71.22225,22.14025 70.8015,20.9165 70.8015,19.2555 L70.8015,12.3915 C70.8015,11.9845 70.74375,11.69025 70.62825,11.50875 C70.51275,11.32725 70.312,11.176 70.026,11.055 Z M74.316,11.2365 L74.316,8.4975 L79.728,8.4975 C80.113,8.4975 80.4155,8.5855 80.6355,8.7615 C80.8555,8.9375 80.9655,9.1905 80.9655,9.5205 C80.9655,10.0155 80.75375,10.42525 80.33025,10.74975 C79.90675,11.07425 79.2165,11.2365 78.2595,11.2365 L74.316,11.2365 Z" id="path-5"></path>
        <path d="M89.3805,9.4215 L89.3805,19.734 C89.3805,20.218 89.4245,20.55625 89.5125,20.74875 C89.6005,20.94125 89.727,21.0925 89.892,21.2025 L90.222,21.351 C90.453,21.494 90.63175,21.66175 90.75825,21.85425 C90.88475,22.04675 90.948,22.286 90.948,22.572 C90.948,22.935 90.83525,23.221 90.60975,23.43 C90.38425,23.639 90.0735,23.7435 89.6775,23.7435 L83.556,23.7435 C83.16,23.7435 82.8465,23.639 82.6155,23.43 C82.3845,23.221 82.269,22.935 82.269,22.572 C82.269,22.286 82.33225,22.04675 82.45875,21.85425 C82.58525,21.66175 82.764,21.494 82.995,21.351 L83.3415,21.2025 C83.5065,21.0925 83.633,20.94125 83.721,20.74875 C83.809,20.55625 83.853,20.218 83.853,19.734 L83.853,13.53 C83.853,13.101 83.80075,12.804 83.69625,12.639 C83.59175,12.474 83.4405,12.3475 83.2425,12.2595 L82.7805,12.1605 C82.5495,12.0285 82.3735,11.88275 82.2525,11.72325 C82.1315,11.56375 82.071,11.3575 82.071,11.1045 C82.071,10.8185 82.15625,10.571 82.32675,10.362 C82.49725,10.153 82.786,9.9715 83.193,9.8175 L86.13,8.6955 C86.625,8.4975 87.02375,8.35725 87.32625,8.27475 C87.62875,8.19225 87.9285,8.151 88.2255,8.151 C88.5885,8.151 88.87175,8.26925 89.07525,8.50575 C89.27875,8.74225 89.3805,9.0475 89.3805,9.4215 Z M86.361,6.3525 C85.349,6.3525 84.546,6.094 83.952,5.577 C83.358,5.06 83.061,4.3615 83.061,3.4815 C83.061,2.6125 83.358,1.9195 83.952,1.4025 C84.546,0.8855 85.349,0.627 86.361,0.627 C87.373,0.627 88.176,0.8855 88.77,1.4025 C89.364,1.9195 89.661,2.6125 89.661,3.4815 C89.661,4.3615 89.364,5.06 88.77,5.577 C88.176,6.094 87.373,6.3525 86.361,6.3525 Z" id="path-6"></path>
        <path d="M100.8645,8.118 C102.5475,8.118 104.016,8.459 105.27,9.141 C106.524,9.823 107.50025,10.769 108.19875,11.979 C108.89725,13.189 109.2465,14.586 109.2465,16.17 C109.2465,17.655 108.88625,18.99975 108.16575,20.20425 C107.44525,21.40875 106.43875,22.36025 105.14625,23.05875 C103.85375,23.75725 102.355,24.1065 100.65,24.1065 C98.978,24.1065 97.51225,23.7655 96.25275,23.0835 C94.99325,22.4015 94.01425,21.45275 93.31575,20.23725 C92.61725,19.02175 92.268,17.6165 92.268,16.0215 C92.268,14.5475 92.62825,13.21375 93.34875,12.02025 C94.06925,10.82675 95.073,9.878 96.36,9.174 C97.647,8.47 99.1485,8.118 100.8645,8.118 Z M102.0525,21.2685 C102.5255,21.1585 102.905,20.8615 103.191,20.3775 C103.477,19.8935 103.642,19.24175 103.686,18.42225 C103.73,17.60275 103.6145,16.643 103.3395,15.543 C103.0645,14.377 102.7235,13.43375 102.3165,12.71325 C101.9095,11.99275 101.464,11.48675 100.98,11.19525 C100.496,10.90375 100.0065,10.8185 99.5115,10.9395 C99.0385,11.0495 98.65625,11.341 98.36475,11.814 C98.07325,12.287 97.9055,12.9305 97.8615,13.7445 C97.8175,14.5585 97.933,15.532 98.208,16.665 C98.483,17.831 98.824,18.7715 99.231,19.4865 C99.638,20.2015 100.0835,20.70475 100.5675,20.99625 C101.0515,21.28775 101.5465,21.3785 102.0525,21.2685 Z" id="path-7"></path>
        <path d="M118.074,9.4215 L118.074,19.734 C118.074,20.262 118.10975,20.63325 118.18125,20.84775 C118.25275,21.06225 118.382,21.2245 118.569,21.3345 L118.9155,21.516 C119.3005,21.78 119.493,22.132 119.493,22.572 C119.493,23.353 119.1135,23.7435 118.3545,23.7435 L112.2495,23.7435 C111.8645,23.7435 111.5565,23.639 111.3255,23.43 C111.0945,23.221 110.979,22.935 110.979,22.572 C110.979,22.286 111.04225,22.0495 111.16875,21.8625 C111.29525,21.6755 111.474,21.505 111.705,21.351 L112.035,21.2025 C112.211,21.1035 112.34025,20.95775 112.42275,20.76525 C112.50525,20.57275 112.5465,20.229 112.5465,19.734 L112.5465,13.53 C112.5465,13.101 112.497,12.804 112.398,12.639 C112.299,12.474 112.145,12.3475 111.936,12.2595 L111.4905,12.1605 C111.2595,12.0285 111.08075,11.88275 110.95425,11.72325 C110.82775,11.56375 110.7645,11.3575 110.7645,11.1045 C110.7645,10.8185 110.8525,10.571 111.0285,10.362 C111.2045,10.153 111.496,9.9715 111.903,9.8175 L114.84,8.6955 C115.324,8.4975 115.72,8.35725 116.028,8.27475 C116.336,8.19225 116.6385,8.151 116.9355,8.151 C117.2985,8.151 117.579,8.26925 117.777,8.50575 C117.975,8.74225 118.074,9.0475 118.074,9.4215 Z M117.546,13.6785 L116.49,12.4575 L117.2325,11.7315 C118.5525,10.4005 119.7405,9.46275 120.7965,8.91825 C121.8525,8.37375 122.8425,8.1015 123.7665,8.1015 C125.1305,8.1015 126.21675,8.547 127.02525,9.438 C127.83375,10.329 128.238,11.5225 128.238,13.0185 L128.238,19.734 C128.238,20.229 128.27925,20.57275 128.36175,20.76525 C128.44425,20.95775 128.5735,21.1035 128.7495,21.2025 L129.0795,21.351 C129.3105,21.516 129.48925,21.68925 129.61575,21.87075 C129.74225,22.05225 129.8055,22.286 129.8055,22.572 C129.8055,22.935 129.69275,23.221 129.46725,23.43 C129.24175,23.639 128.931,23.7435 128.535,23.7435 L122.4465,23.7435 C121.6765,23.7435 121.2915,23.353 121.2915,22.572 C121.2915,22.132 121.484,21.78 121.869,21.516 L122.2155,21.3345 C122.4025,21.2245 122.53175,21.06225 122.60325,20.84775 C122.67475,20.63325 122.7105,20.262 122.7105,19.734 L122.7105,14.388 C122.7105,13.629 122.5345,13.0515 122.1825,12.6555 C121.8305,12.2595 121.341,12.0615 120.714,12.0615 C120.296,12.0615 119.86425,12.14675 119.41875,12.31725 C118.97325,12.48775 118.536,12.771 118.107,13.167 L117.546,13.6785 Z" id="path-8"></path>
        <path d="M138.039,10.362 C137.423,10.362 136.9665,10.49125 136.6695,10.74975 C136.3725,11.00825 136.224,11.3245 136.224,11.6985 C136.224,11.9515 136.29,12.17975 136.422,12.38325 C136.554,12.58675 136.76575,12.7655 137.05725,12.9195 C137.34875,13.0735 137.7255,13.211 138.1875,13.332 C139.8375,13.728 141.15475,14.18175 142.13925,14.69325 C143.12375,15.20475 143.83325,15.8125 144.26775,16.5165 C144.70225,17.2205 144.9195,18.0455 144.9195,18.9915 C144.9195,20.5315 144.38875,21.77725 143.32725,22.72875 C142.26575,23.68025 140.646,24.156 138.468,24.156 C137.852,24.156 137.31575,24.0955 136.85925,23.9745 C136.40275,23.8535 136.015,23.73525 135.696,23.61975 C135.377,23.50425 135.102,23.4465 134.871,23.4465 C134.673,23.4465 134.49975,23.507 134.35125,23.628 C134.20275,23.749 134.05425,23.87 133.90575,23.991 C133.75725,24.112 133.5675,24.1725 133.3365,24.1725 C133.0615,24.1725 132.81125,24.07625 132.58575,23.88375 C132.36025,23.69125 132.165,23.3585 132,22.8855 L131.3565,21.12 C131.1475,20.482 131.1035,19.94025 131.2245,19.49475 C131.3455,19.04925 131.593,18.755 131.967,18.612 C132.352,18.469 132.75625,18.4745 133.17975,18.6285 C133.60325,18.7825 133.9635,19.0575 134.2605,19.4535 C134.6455,19.9815 135.03875,20.42975 135.44025,20.79825 C135.84175,21.16675 136.26525,21.44725 136.71075,21.63975 C137.15625,21.83225 137.643,21.9285 138.171,21.9285 C138.842,21.9285 139.33425,21.78 139.64775,21.483 C139.96125,21.186 140.118,20.8175 140.118,20.3775 C140.118,20.0695 140.0355,19.8 139.8705,19.569 C139.7055,19.338 139.4305,19.1345 139.0455,18.9585 C138.6605,18.7825 138.1435,18.623 137.4945,18.48 C136.1415,18.238 135.01675,17.88325 134.12025,17.41575 C133.22375,16.94825 132.55,16.357 132.099,15.642 C131.648,14.927 131.4225,14.08 131.4225,13.101 C131.4225,12.1 131.692,11.2255 132.231,10.4775 C132.77,9.7295 133.5125,9.1465 134.4585,8.7285 C135.4045,8.3105 136.5045,8.1015 137.7585,8.1015 C138.5285,8.1015 139.1445,8.162 139.6065,8.283 C140.0685,8.404 140.42325,8.525 140.67075,8.646 C140.91825,8.767 141.1135,8.8275 141.2565,8.8275 C141.4545,8.8275 141.62775,8.767 141.77625,8.646 C141.92475,8.525 142.07875,8.404 142.23825,8.283 C142.39775,8.162 142.582,8.1015 142.791,8.1015 C143.055,8.1015 143.2805,8.19225 143.4675,8.37375 C143.6545,8.55525 143.792,8.8605 143.88,9.2895 L144.3915,11.3685 C144.5235,11.9515 144.54825,12.44925 144.46575,12.86175 C144.38325,13.27425 144.144,13.53 143.748,13.629 C143.429,13.706 143.09625,13.65375 142.74975,13.47225 C142.40325,13.29075 142.076,12.991 141.768,12.573 C141.251,11.814 140.68725,11.25575 140.07675,10.89825 C139.46625,10.54075 138.787,10.362 138.039,10.362 Z" id="path-9"></path>
    </defs>
    <g id="Page-1" stroke="none" stroke-width="1" fill="none" fill-rule="evenodd">
        <g id="Large" transform="translate(-843.000000, -382.000000)" fill="#FFFFFF" fill-rule="nonzero">
            <g id="Fractions" transform="translate(843.738250, 382.256500)">
                <g id="Shape">
                    <use xlink:href="#path-1"></use>
                    <use xlink:href="#path-1"></use>
                </g>
                <g id="Shape">
                    <use xlink:href="#path-2"></use>
                    <use xlink:href="#path-2"></use>
                </g>
                <g id="Shape">
                    <use xlink:href="#path-3"></use>
                    <use xlink:href="#path-3"></use>
                </g>
                <g id="Path">
                    <use xlink:href="#path-4"></use>
                    <use xlink:href="#path-4"></use>
                </g>
                <g id="Shape">
                    <use xlink:href="#path-5"></use>
                    <use xlink:href="#path-5"></use>
                </g>
                <g id="Shape">
                    <use xlink:href="#path-6"></use>
                    <use xlink:href="#path-6"></use>
                </g>
                <g id="Shape">
                    <use xlink:href="#path-7"></use>
                    <use xlink:href="#path-7"></use>
                </g>
                <g id="Shape">
                    <use xlink:href="#path-8"></use>
                    <use xlink:href="#path-8"></use>
                </g>
                <g id="Path">
                    <use xlink:href="#path-9"></use>
                    <use xlink:href="#path-9"></use>
                </g>
            </g>
        </g>
    </g>
</svg>